<svg width="359" height="112" viewBox="0 0 359 112" fill="none" xmlns="http://www.w3.org/2000/svg">
<path d="M180.149 93.2374C170.813 94.0634 160.827 89.3824 155.126 81.5124C149.425 73.6423 148.238 62.9055 152.163 54.6318C156.086 46.3359 164.952 40.844 174.38 40.8584C176.795 58.4659 180.112 75.6171 180.149 93.2374Z" stroke="black" stroke-width="3" stroke-linecap="round" stroke-linejoin="round"/>
<path d="M179.741 86.9592C172.629 87.5833 165.031 84.0274 160.678 78.0248C156.336 72.0333 155.431 63.8619 158.429 57.5465C161.426 51.2312 168.177 47.0469 175.359 47.0531C177.21 60.4689 179.726 73.5369 179.751 86.9482L179.741 86.9592Z" stroke="black" stroke-width="3" stroke-linecap="round" stroke-linejoin="round"/>
<path d="M158.114 58.7921C164.677 60.5495 171.429 63.2585 178.004 65.005C170.962 65.6959 163.909 66.3758 156.857 67.0777" stroke="black" stroke-width="3" stroke-linecap="round" stroke-linejoin="round"/>
<path d="M162.64 53.0753C167.579 56.962 172.528 60.8376 177.467 64.7242" stroke="black" stroke-width="3" stroke-linecap="round" stroke-linejoin="round"/>
<path d="M168.007 49.2659C171.31 54.1438 174.624 59.0107 177.916 63.8774" stroke="black" stroke-width="3" stroke-linecap="round" stroke-linejoin="round"/>
<path d="M161.134 75.3885C166.516 71.8442 171.897 68.2779 177.28 64.7337C174.89 71.4187 171.448 77.896 166.891 83.27" stroke="black" stroke-width="3" stroke-linecap="round" stroke-linejoin="round"/>
<path d="M73.3537 33.5033C73.6426 34.866 73.928 36.226 74.1953 37.6102C74.485 39.0968 75.1533 43.0906 75.1477 44.5984C75.1482 46.1054 74.83 47.643 74.002 48.8866C73.4576 49.6981 73.4061 49.9439 72.8828 50.7711C72.3596 51.5983 72.7086 53.0862 72.8668 54.5875C73.2071 57.8007 73.7417 61.0032 74.1073 64.2192C74.4681 67.4048 74.8071 70.5903 75.2019 73.7745C75.5967 76.9586 75.9767 80.1479 76.5431 83.3151C76.8288 84.8952 77.1572 86.4696 77.5639 88.0273C77.9328 89.4442 78.4593 90.8338 78.7708 92.2616C78.9067 92.8882 78.9912 93.5249 78.9607 94.1617C78.8696 96.0563 77.5299 98.2 75.4414 98.2523C73.7774 98.2939 72.3209 96.9245 71.7068 95.3731C71.0927 93.8218 71.1418 92.1158 71.1742 90.4617C71.3984 79.3423 71.4886 66.8952 69.0135 55.6625C68.7513 54.7862 68.3023 52.1086 67.6994 51.4396C67.0965 50.7705 66.5203 49.9551 66.0201 49.2071C65.3525 48.2056 65.1189 46.9968 64.9006 45.8261C64.064 41.3155 63.4601 34.3081 63.2583 29.7397C63.2436 29.4285 63.4623 29.1571 63.7788 29.0927C64.1649 29.0157 64.531 29.3261 64.5703 29.7146C64.9321 33.1637 65.4589 36.6928 66.0321 39.9831C66.0869 40.292 66.2139 40.585 66.4117 40.8343C66.575 41.0417 66.7252 41.1858 66.9901 41.1098C67.3801 40.9982 67.596 40.5908 67.5426 40.1917C67.0415 36.5692 66.3666 33.0476 65.7638 29.2527C65.7208 28.9794 65.8821 28.7189 66.1496 28.6394C66.1496 28.6394 66.1582 28.6351 66.1643 28.6343C66.4873 28.5318 66.8311 28.7397 66.8932 29.0755C67.5444 32.5848 68.2596 36.2436 68.9044 39.732C68.9516 39.9923 69.0067 40.264 69.1536 40.486C69.3005 40.7081 69.5809 40.8687 69.8381 40.803C70.256 40.6908 70.3364 40.1341 70.2783 39.7047C69.8074 36.0564 69.1328 32.755 68.4315 29.085C68.3693 28.7492 68.6092 28.4346 68.9628 28.4086C69.2642 28.3865 69.5375 28.6009 69.5903 28.8976C70.2558 32.5569 70.829 36.1635 71.5016 39.8281C71.5411 40.0398 71.5806 40.2515 71.6964 40.4344C71.8123 40.6172 72.0208 40.7565 72.2305 40.7251C72.4194 40.6996 72.5655 40.5404 72.6311 40.3641C72.6462 40.3217 72.6578 40.2767 72.6694 40.2317C72.8206 39.4919 72.7657 38.7272 72.6387 37.9784L71.0879 28.8661C71.0348 28.5476 71.2304 28.2484 71.5527 28.1615C71.9055 28.0704 72.2688 28.3036 72.3408 28.6629C72.6665 30.2997 73.0093 31.9062 73.3531 33.5189L73.3537 33.5033Z" stroke="black" stroke-width="2" stroke-linecap="round" stroke-linejoin="round"/>
<path d="M66.9171 47.334C67.3619 48.5608 67.9414 49.813 68.8415 50.7893" stroke="black" stroke-linecap="round" stroke-linejoin="round"/>
<path d="M65.9738 42.7384C65.997 43.9943 66.26 45.2519 66.627 46.4583" stroke="black" stroke-linecap="round" stroke-linejoin="round"/>
<path d="M75.9865 98.1973C75.7902 97.9385 75.5914 97.6831 75.3952 97.4243" stroke="black" stroke-linecap="round" stroke-linejoin="round"/>
<path d="M76.9942 97.8598C76.497 97.2695 75.9998 96.6791 75.5026 96.0888" stroke="black" stroke-linecap="round" stroke-linejoin="round"/>
<path d="M77.4816 97.0219C77.2571 96.7421 77.0327 96.4623 76.8083 96.1824" stroke="black" stroke-linecap="round" stroke-linejoin="round"/>
<path d="M78.242 96.4572C77.7256 95.8043 77.2057 95.1489 76.6919 94.4926" stroke="black" stroke-linecap="round" stroke-linejoin="round"/>
<path d="M78.559 95.2082C78.3539 94.9907 78.1549 94.7723 77.9498 94.5549" stroke="black" stroke-linecap="round" stroke-linejoin="round"/>
<path d="M78.9758 94.3767C78.5933 94.0001 78.2083 93.627 77.8293 93.253" stroke="black" stroke-linecap="round" stroke-linejoin="round"/>
<path d="M78.6186 92.7379C78.0901 92.3441 77.5615 91.9503 77.0355 91.553" stroke="black" stroke-linecap="round" stroke-linejoin="round"/>
<path d="M78.3633 91.4258C77.9968 91.1527 77.6275 90.8835 77.2582 90.6143" stroke="black" stroke-linecap="round" stroke-linejoin="round"/>
<path d="M77.8352 89.8326C77.4456 89.5906 77.0586 89.3451 76.6691 89.1031" stroke="black" stroke-linecap="round" stroke-linejoin="round"/>
<path d="M77.3879 88.2339L76.3308 87.4463" stroke="black" stroke-linecap="round" stroke-linejoin="round"/>
<path d="M72.4573 84.93C72.4152 83.6333 72.3731 82.3365 72.331 81.0398" stroke="black" stroke-linecap="round" stroke-linejoin="round"/>
<path d="M12.16 41.1167C12.5867 44.018 13.056 47.0474 13.568 50.2047C14.08 53.2767 14.592 56.6047 15.104 60.1887C19.0293 57.714 23.1253 55.2394 27.392 52.7647C31.744 50.2047 35.7973 48.1567 39.552 46.6207C39.8933 46.5354 40.32 46.5354 40.832 46.6207C41.4293 46.6207 42.0267 46.7487 42.624 47.0047C43.2213 47.1754 43.7333 47.4314 44.16 47.7727C44.5867 48.114 44.8853 48.5407 45.056 49.0527C45.2267 49.65 45.0987 50.4607 44.672 51.4847C44.2453 52.4234 43.776 52.978 43.264 53.1487C42.24 53.746 40.8747 54.5567 39.168 55.5807C37.5467 56.5194 35.7973 57.5434 33.92 58.6527C32.128 59.762 30.336 60.8714 28.544 61.9807C26.8373 63.09 25.3867 64.0287 24.192 64.7967C29.056 67.442 33.792 69.7034 38.4 71.5807C43.0933 73.458 48.0427 74.994 53.248 76.1887C53.76 76.274 54.272 76.6154 54.784 77.2127C55.3813 77.7247 55.8507 78.3647 56.192 79.1327C56.5333 79.9007 56.704 80.6687 56.704 81.4367C56.7893 82.2047 56.6187 82.8874 56.192 83.4847C55.68 84.1674 54.9547 84.594 54.016 84.7647C53.1627 84.85 52.2667 84.8074 51.328 84.6367C44.8427 83.1007 38.912 81.2234 33.536 79.0047C28.16 76.7007 22.528 73.9274 16.64 70.6847C17.0667 74.354 17.4507 78.1514 17.792 82.0767C18.2187 86.002 18.6027 90.1407 18.944 94.4927C18.944 95.4314 18.56 95.986 17.792 96.1567C17.024 96.242 16.1707 96.1994 15.232 96.0287C14.2933 95.858 13.44 95.5594 12.672 95.1327C11.904 94.706 11.4347 94.2794 11.264 93.8527C10.752 89.9274 10.1973 85.7887 9.6 81.4367C9.088 77.0847 8.49067 72.69 7.808 68.2527C7.12533 63.73 6.4 59.2927 5.632 54.9407C4.864 50.5034 4.096 46.2794 3.328 42.2687C3.15733 41.33 3.37067 40.2634 3.968 39.0687C4.56533 37.7887 5.67467 37.0634 7.296 36.8927C7.89333 36.8927 8.448 37.0634 8.96 37.4047C9.55733 37.6607 10.0693 38.0447 10.496 38.5567C11.008 38.9834 11.392 39.4527 11.648 39.9647C11.904 40.3914 12.0747 40.7754 12.16 41.1167ZM141.606 44.5727C132.817 44.146 124.369 44.8287 116.262 46.6207C108.155 48.4127 100.134 50.8447 92.198 53.9167C90.15 54.6847 88.5713 54.5994 87.462 53.6607C86.438 52.722 85.926 51.7834 85.926 50.8447C86.5233 49.2234 87.59 47.9007 89.126 46.8767C106.619 38.3434 124.113 35.186 141.606 37.4047C142.459 37.6607 143.142 38.3007 143.654 39.3247C144.251 40.2634 144.465 41.074 144.294 41.7567C144.123 42.61 143.867 43.3354 143.526 43.9327C143.185 44.4447 142.545 44.658 141.606 44.5727ZM123.43 89.2447C123.43 90.1834 123.089 91.0367 122.406 91.8047C121.809 92.4874 121.041 92.914 120.102 93.0847C118.395 93.3407 117.286 93.042 116.774 92.1887C116.262 91.3354 115.963 90.354 115.878 89.2447C115.793 83.2714 115.665 77.3407 115.494 71.4527C115.409 65.4794 115.153 59.506 114.726 53.5327C114.726 53.1914 114.683 52.8074 114.598 52.3807C114.513 51.8687 114.513 51.3994 114.598 50.9727C114.683 50.4607 114.854 50.034 115.11 49.6927C115.451 49.3514 115.963 49.0954 116.646 48.9247C118.609 48.5834 120.017 48.9247 120.87 49.9487C121.723 50.8874 122.15 51.826 122.15 52.7647C122.833 58.9087 123.259 65.01 123.43 71.0687C123.601 77.1274 123.601 83.186 123.43 89.2447ZM240.411 44.5727C241.606 51.4847 242.502 58.3967 243.099 65.3087C243.696 72.1354 244.166 78.962 244.507 85.7887C244.592 86.5567 244.507 87.2394 244.251 87.8367C243.995 88.3487 243.654 88.818 243.227 89.2447C242.886 89.6714 242.502 90.0127 242.075 90.2687C241.734 90.5247 241.435 90.6527 241.179 90.6527C240.24 90.6527 239.302 90.226 238.363 89.3727C237.51 88.434 236.998 87.2394 236.827 85.7887C236.571 82.546 236.315 79.3034 236.059 76.0607C235.803 72.818 235.504 69.5754 235.163 66.3327C226.203 68.8074 216.731 70.9834 206.747 72.8607C207.088 74.738 207.43 76.6154 207.771 78.4927C208.112 80.37 208.496 82.2474 208.923 84.1247C209.008 84.466 209.051 85.0207 209.051 85.7887C209.136 86.5567 209.094 87.3674 208.923 88.2207C208.838 89.074 208.582 89.8847 208.155 90.6527C207.814 91.3354 207.259 91.8474 206.491 92.1887C205.808 92.274 205.083 92.0607 204.315 91.5487C203.547 91.0367 203.035 90.5247 202.779 90.0127C201.755 87.3674 200.774 84.21 199.835 80.5407C198.982 76.8714 198.214 73.0314 197.531 69.0207C196.934 64.9247 196.507 60.786 196.251 56.6047C195.995 52.4234 195.952 48.4127 196.123 44.5727C196.294 43.2927 196.763 42.3967 197.531 41.8847C198.384 41.2874 199.152 40.9887 199.835 40.9887C200.603 40.9887 201.243 41.2447 201.755 41.7567C202.352 42.2687 202.822 42.9087 203.163 43.6767C203.504 44.4447 203.76 45.2127 203.931 45.9807C204.102 46.7487 204.187 47.3887 204.187 47.9007C204.272 50.6314 204.4 53.3194 204.571 55.9647C204.742 58.61 205.04 61.2554 205.467 63.9007C209.819 63.3034 214.555 62.4927 219.675 61.4687C224.795 60.3594 229.616 59.122 234.139 57.7567C233.968 55.794 233.755 53.8314 233.499 51.8687C233.243 49.8207 232.987 47.8154 232.731 45.8527C232.731 44.402 233.158 43.122 234.011 42.0127C234.95 40.9034 235.888 40.3487 236.827 40.3487C237.51 40.3487 238.192 40.69 238.875 41.3727C239.643 42.0554 240.155 43.122 240.411 44.5727ZM291.374 63.7727C291.715 64.626 291.374 65.4794 290.35 66.3327C289.326 67.1007 287.705 67.6127 285.486 67.8687C281.646 68.3807 277.721 68.9354 273.71 69.5327C269.699 70.0447 265.603 70.5994 261.422 71.1967C261.251 75.5487 261.251 79.9007 261.422 84.2527C263.385 84.2527 265.731 84.082 268.462 83.7407C271.278 83.314 274.137 82.802 277.038 82.2047C279.939 81.6074 282.713 81.01 285.358 80.4127C288.089 79.73 290.393 79.1754 292.27 78.7487C293.209 78.4927 294.19 78.322 295.214 78.2367C296.238 78.066 297.134 78.066 297.902 78.2367C298.755 78.322 299.438 78.6207 299.95 79.1327C300.462 79.6447 300.718 80.37 300.718 81.3087C300.718 81.5647 300.419 81.9487 299.822 82.4607C299.225 82.9727 298.457 83.5274 297.518 84.1247C296.665 84.6367 295.726 85.1487 294.702 85.6607C293.763 86.0874 292.91 86.4287 292.142 86.6847C286.851 88.3914 281.646 89.8847 276.526 91.1647C271.406 92.3594 266.414 92.9994 261.55 93.0847C258.734 93.17 256.601 92.4447 255.15 90.9087C253.699 89.2874 252.931 86.9834 252.846 83.9967C252.675 79.8154 252.675 75.5914 252.846 71.3247C251.395 70.4714 250.67 69.2767 250.67 67.7407C250.841 66.1194 251.609 65.01 252.974 64.4127C253.145 61.938 253.273 59.4634 253.358 56.9887C253.443 54.4287 253.571 51.9114 253.742 49.4367C252.803 49.266 251.95 48.7967 251.182 48.0287C250.499 47.2607 250.158 46.4074 250.158 45.4687C250.158 44.7007 250.329 44.018 250.67 43.4207C251.011 42.738 251.651 42.226 252.59 41.8847C254.126 41.5434 256.003 41.1594 258.222 40.7327C260.441 40.306 262.702 39.922 265.006 39.5807C267.395 39.2394 269.657 38.9407 271.79 38.6847C274.009 38.4287 275.886 38.258 277.422 38.1727C279.214 38.002 280.921 38.1727 282.542 38.6847C284.249 39.1967 285.827 40.178 287.278 41.6287C287.619 42.8234 287.363 43.7194 286.51 44.3167C285.742 44.914 284.718 45.298 283.438 45.4687C282.158 45.6394 280.622 45.8527 278.83 46.1087C277.038 46.2794 275.161 46.4927 273.198 46.7487C271.321 47.0047 269.401 47.2607 267.438 47.5167C265.561 47.6874 263.769 47.9007 262.062 48.1567C262.062 48.3274 262.062 48.5407 262.062 48.7967C262.147 48.9674 262.19 49.138 262.19 49.3087C262.019 51.5274 261.891 53.746 261.806 55.9647C261.721 58.1834 261.635 60.402 261.55 62.6207C265.134 62.0234 268.803 61.5114 272.558 61.0847C276.313 60.5727 279.299 60.2314 281.518 60.0607C283.31 59.89 285.059 60.1034 286.766 60.7007C288.473 61.298 290.009 62.322 291.374 63.7727ZM315.458 93.4687C315.202 90.3114 314.989 86.7274 314.818 82.7167C314.733 78.706 314.69 74.61 314.69 70.4287C314.69 66.162 314.69 61.9807 314.69 57.8847C314.775 53.7887 314.903 50.0767 315.074 46.7487C315.074 45.8954 315.458 45.2554 316.226 44.8287C317.079 44.3167 317.762 44.1034 318.274 44.1887C319.81 44.3594 320.834 44.914 321.346 45.8527C321.943 46.706 322.327 47.9434 322.498 49.5647C322.413 52.2954 322.327 55.026 322.242 57.7567C322.242 60.4874 322.285 63.218 322.37 65.9487C326.21 65.266 329.41 63.858 331.97 61.7247C334.615 59.5914 336.493 57.1594 337.602 54.4287C338.029 53.4047 338.327 52.1674 338.498 50.7167C338.754 49.266 338.797 47.8154 338.626 46.3647C338.455 44.8287 338.029 43.4207 337.346 42.1407C336.749 40.7754 335.81 39.7087 334.53 38.9407C332.653 37.8314 330.605 37.234 328.386 37.1487C326.167 37.0634 323.863 37.4047 321.474 38.1727C319.17 38.8554 316.866 39.9647 314.562 41.5007C312.343 43.0367 310.253 44.8714 308.29 47.0047C308.546 48.2847 308.375 49.4367 307.778 50.4607C307.181 51.3994 306.327 52.082 305.218 52.5087C304.535 52.6794 303.725 52.338 302.786 51.4847C301.847 50.546 301.378 49.6074 301.378 48.6687C301.378 45.2554 302.317 42.3114 304.194 39.8367C306.157 37.2767 308.589 35.1434 311.49 33.4367C314.391 31.73 317.506 30.45 320.834 29.5967C324.162 28.7434 327.234 28.3167 330.05 28.3167C334.231 28.3167 337.73 29.554 340.546 32.0287C343.362 34.418 345.282 37.4474 346.306 41.1167C348.098 47.5167 347.629 53.2767 344.898 58.3967C342.253 63.5167 337.901 67.954 331.842 71.7087C336.279 74.4394 340.418 77.042 344.258 79.5167C348.183 81.9914 352.109 84.6794 356.034 87.5807C356.546 88.0927 357.101 88.8607 357.698 89.8847C358.381 90.8234 358.295 92.274 357.442 94.2367C356.93 95.4314 356.034 96.114 354.754 96.2847C353.559 96.37 352.365 95.986 351.17 95.1327C349.293 93.5967 347.159 92.018 344.77 90.3967C342.466 88.69 340.034 87.026 337.474 85.4047C334.914 83.698 332.354 82.0767 329.794 80.5407C327.234 78.9194 324.802 77.426 322.498 76.0607C322.583 79.474 322.626 82.8874 322.626 86.3007C322.711 89.6287 322.839 92.914 323.01 96.1567C323.01 97.3514 322.669 98.2047 321.986 98.7167C321.303 99.1434 320.45 99.3567 319.426 99.3567C318.914 99.2714 318.445 99.0154 318.018 98.5887C317.591 98.0767 317.165 97.522 316.738 96.9247C316.397 96.242 316.098 95.602 315.842 95.0047C315.586 94.322 315.458 93.81 315.458 93.4687Z" fill="black"/>
<path d="M253.307 37.458C263.067 34.9308 270.022 28.7191 290.76 37.7139C295.043 39.569 287.487 28.9822 296.333 19.8887C305.179 10.7952 294.716 5.59846 290.769 4.71714C287.121 3.90487 279.961 4.28244 276.163 7.90866C272.366 11.5349 265.198 -2.73168 254.371 4.04049C243.545 10.8127 243.64 13.4972 245.651 16.7912C247.203 19.3266 251.41 22.8832 252.402 26.5836C253.394 30.284 250.661 38.1457 253.307 37.458Z" stroke="#1D1D1B" stroke-width="3" stroke-miterlimit="10"/>
<path d="M252.217 33.8734C252.217 33.8734 278.354 22.5834 291.877 33.3926" stroke="#1D1D1B" stroke-width="3" stroke-miterlimit="10"/>
<path d="M257.64 31.9083C257.713 17.6089 256.26 16.9369 256.26 16.9369" stroke="#1D1D1B" stroke-width="3" stroke-miterlimit="10"/>
<path d="M263.535 30.2905C264.032 18.7247 262.681 17.3667 262.681 17.3667" stroke="#1D1D1B" stroke-width="3" stroke-miterlimit="10"/>
<path d="M267.941 29.4181C270.445 22.9356 269.843 21.1741 269.843 21.1741" stroke="#1D1D1B" stroke-width="3" stroke-miterlimit="10"/>
<path d="M274.087 28.7605C274.087 28.7605 275.516 18.858 274.171 16.5131" stroke="#1D1D1B" stroke-width="3" stroke-miterlimit="10"/>
<path d="M278.217 28.7675C282.255 17.7443 281.353 16.9616 281.353 16.9616" stroke="#1D1D1B" stroke-width="3" stroke-miterlimit="10"/>
<path d="M284.552 29.5269C284.552 29.5269 283.902 18.3748 289.164 13.5511" stroke="#1D1D1B" stroke-width="3" stroke-miterlimit="10"/>
<path d="M288.34 31.2873L289.451 23.247" stroke="#1D1D1B" stroke-width="3" stroke-miterlimit="10"/>
</svg>
