<svg width="87" height="26" viewBox="0 0 87 26" fill="none" xmlns="http://www.w3.org/2000/svg">
<path d="M43.3675 23.2807C41.0778 23.4837 38.629 22.3364 37.2322 20.4126C35.8353 18.4887 35.5436 15.8588 36.5072 13.8334C37.4709 11.8036 39.6412 10.4578 41.953 10.4622C42.5453 14.7689 43.3587 18.9696 43.3675 23.2807Z" stroke="black" stroke-linecap="round" stroke-linejoin="round"/>
<path d="M43.2658 21.7452C41.5242 21.8996 39.6589 21.0259 38.5936 19.5609C37.5283 18.096 37.3073 16.0971 38.0411 14.5483C38.7748 13.0039 40.4324 11.9801 42.1917 11.9801C42.647 15.2631 43.2614 18.4622 43.2702 21.7452H43.2658Z" stroke="black" stroke-linecap="round" stroke-linejoin="round"/>
<path d="M37.9615 14.8527C39.5704 15.2807 41.2236 15.947 42.837 16.3751C41.1087 16.5427 39.3804 16.7104 37.652 16.8825" stroke="black" stroke-linecap="round" stroke-linejoin="round"/>
<path d="M39.071 13.4539C40.2821 14.407 41.4933 15.3513 42.7045 16.3044" stroke="black" stroke-linecap="round" stroke-linejoin="round"/>
<path d="M40.3882 12.5229C41.1972 13.7187 42.0105 14.9056 42.8194 16.097" stroke="black" stroke-linecap="round" stroke-linejoin="round"/>
<path d="M38.7041 18.9167C40.0213 18.0474 41.343 17.1781 42.6603 16.3089C42.0724 17.9459 41.2325 19.53 40.1142 20.845" stroke="black" stroke-linecap="round" stroke-linejoin="round"/>
<path d="M17.1862 8.66628C17.2569 9.00164 17.3276 9.33258 17.3939 9.67235C17.4647 10.0342 17.6282 11.0138 17.6282 11.3844C17.6282 11.7551 17.5486 12.1302 17.3453 12.4346C17.2127 12.6332 17.1994 12.695 17.0713 12.8979C16.9431 13.1009 17.0271 13.4628 17.0713 13.8334C17.1552 14.6188 17.2878 15.4043 17.3763 16.1897C17.4647 16.9708 17.5486 17.7474 17.6459 18.5284C17.7431 19.3094 17.836 20.086 17.973 20.8626C18.0437 21.251 18.1233 21.6348 18.2249 22.0143C18.3134 22.3629 18.446 22.7027 18.5211 23.0513C18.5565 23.2057 18.5742 23.3602 18.5697 23.5146C18.5476 23.9779 18.2205 24.503 17.7078 24.5163C17.3011 24.5251 16.9431 24.1897 16.7928 23.8102C16.6425 23.4308 16.6557 23.0116 16.6602 22.61C16.7132 19.8875 16.7353 16.8428 16.1297 14.0938C16.0634 13.8775 15.9573 13.2245 15.8071 13.0612C15.6612 12.8979 15.5197 12.6994 15.396 12.5141C15.2324 12.2669 15.175 11.9713 15.1219 11.6845C14.9186 10.5813 14.7683 8.86485 14.7197 7.74847C14.7197 7.67345 14.7683 7.60727 14.8479 7.58962C14.9407 7.57197 15.0335 7.64698 15.0423 7.73964C15.1308 8.58245 15.2589 9.44731 15.4004 10.2504C15.4137 10.3254 15.4446 10.396 15.4932 10.4578C15.533 10.5107 15.5684 10.5416 15.6347 10.524C15.7319 10.4975 15.785 10.396 15.7717 10.2989C15.6479 9.41201 15.4844 8.55156 15.3341 7.6205C15.3252 7.55431 15.365 7.48813 15.4269 7.47048C15.5065 7.444 15.5905 7.49695 15.6037 7.57638C15.7629 8.43683 15.9397 9.33258 16.0988 10.1842C16.1121 10.246 16.1253 10.3166 16.1607 10.3695C16.196 10.4225 16.2668 10.4622 16.3286 10.449C16.4303 10.4225 16.4524 10.2857 16.4347 10.1798C16.3198 9.28846 16.1518 8.48096 15.9839 7.58079C15.9706 7.49695 16.0281 7.42194 16.1121 7.41311C16.1872 7.4087 16.2535 7.46165 16.2668 7.53225C16.4303 8.428 16.5718 9.31052 16.7353 10.2063C16.7442 10.2592 16.753 10.3078 16.7839 10.3563C16.8105 10.4004 16.8635 10.4357 16.9165 10.4269C16.9607 10.4225 17.0005 10.3828 17.0138 10.3387C17.0138 10.3298 17.0182 10.3166 17.0226 10.3078C17.058 10.1268 17.0447 9.94152 17.0138 9.75619L16.6336 7.52784C16.6204 7.44841 16.669 7.37781 16.7486 7.35575C16.837 7.33369 16.9254 7.39105 16.9431 7.4793C17.0226 7.88085 17.1066 8.27357 17.1906 8.66628H17.1862Z" stroke="black" stroke-linecap="round" stroke-linejoin="round"/>
<path d="M15.6081 12.0507C15.7186 12.3508 15.86 12.6552 16.0811 12.8979" stroke="black" stroke-linecap="round" stroke-linejoin="round"/>
<path d="M15.3738 10.9255C15.3783 11.2344 15.4446 11.5389 15.533 11.8345" stroke="black" stroke-linecap="round" stroke-linejoin="round"/>
<path d="M17.8315 24.4986C17.7829 24.4368 17.7343 24.3706 17.6857 24.3089" stroke="black" stroke-linecap="round" stroke-linejoin="round"/>
<path d="M18.079 24.4148C17.9553 24.2691 17.8359 24.1279 17.7122 23.9823" stroke="black" stroke-linecap="round" stroke-linejoin="round"/>
<path d="M18.1984 24.2074C18.1454 24.1368 18.0879 24.0706 18.0349 24" stroke="black" stroke-linecap="round" stroke-linejoin="round"/>
<path d="M18.3841 24.0706C18.2559 23.9117 18.1321 23.7485 18.0039 23.5896" stroke="black" stroke-linecap="round" stroke-linejoin="round"/>
<path d="M18.4592 23.7661C18.4106 23.7132 18.3619 23.6602 18.3089 23.6073" stroke="black" stroke-linecap="round" stroke-linejoin="round"/>
<path d="M18.5653 23.5631C18.4725 23.4705 18.3752 23.3778 18.2824 23.2896" stroke="black" stroke-linecap="round" stroke-linejoin="round"/>
<path d="M18.4769 23.1616C18.3487 23.0645 18.2161 22.9674 18.0879 22.8704" stroke="black" stroke-linecap="round" stroke-linejoin="round"/>
<path d="M18.415 22.8395C18.3266 22.7733 18.2338 22.7071 18.1454 22.6409" stroke="black" stroke-linecap="round" stroke-linejoin="round"/>
<path d="M18.2824 22.4512C18.1851 22.3938 18.0923 22.332 17.9951 22.2747" stroke="black" stroke-linecap="round" stroke-linejoin="round"/>
<path d="M18.1719 22.0584L17.9111 21.8643" stroke="black" stroke-linecap="round" stroke-linejoin="round"/>
<path d="M16.9651 21.2509C16.9563 20.9332 16.943 20.6155 16.9342 20.2978" stroke="black" stroke-linecap="round" stroke-linejoin="round"/>
<path d="M2.18369 10.5284C2.28977 11.2388 2.4047 11.9801 2.52847 12.7523C2.65224 13.5025 2.78042 14.3188 2.90419 15.1969C3.86781 14.5924 4.87122 13.9878 5.9144 13.3789C6.97969 12.7523 7.97426 12.2493 8.89368 11.8742C8.97766 11.8522 9.08375 11.8522 9.20751 11.8742C9.35338 11.8742 9.49925 11.9051 9.64512 11.9669C9.79099 12.0066 9.91918 12.0728 10.0208 12.1566C10.1269 12.2405 10.1977 12.3464 10.2419 12.4699C10.2816 12.6155 10.2507 12.8141 10.149 13.0656C10.0429 13.2951 9.92802 13.4319 9.80425 13.4716C9.5523 13.6172 9.21636 13.8158 8.80085 14.0673C8.40302 14.2967 7.97426 14.5482 7.51455 14.8174C7.07694 15.091 6.63491 15.3602 6.1973 15.6337C5.77738 15.9073 5.42375 16.1368 5.13201 16.3221C6.32549 16.9707 7.4836 17.5223 8.6152 17.9812C9.76447 18.4401 10.98 18.8152 12.2531 19.1108C12.3769 19.1329 12.505 19.2167 12.6288 19.3624C12.7747 19.4859 12.8896 19.6448 12.9736 19.8301C13.0576 20.0198 13.0974 20.2052 13.0974 20.3949C13.1195 20.5846 13.0753 20.7479 12.9736 20.8979C12.8498 21.0656 12.6686 21.1715 12.4387 21.2112C12.231 21.2333 12.01 21.2201 11.7801 21.1803C10.1888 20.8053 8.73454 20.3464 7.4173 19.8036C6.10006 19.2388 4.72093 18.5593 3.2755 17.7694C3.38158 18.6652 3.47441 19.5962 3.55839 20.5582C3.66448 21.5201 3.75731 22.5306 3.84129 23.5984C3.84129 23.8279 3.74847 23.9647 3.55839 24.0044C3.36832 24.0265 3.16057 24.0132 2.93071 23.9735C2.70086 23.9338 2.49311 23.8588 2.30303 23.7529C2.11296 23.647 1.99803 23.5455 1.95825 23.4396C1.83448 22.4776 1.69746 21.4672 1.55159 20.3993C1.42782 19.3359 1.27753 18.2592 1.11398 17.1737C0.946007 16.0662 0.769196 14.9807 0.579124 13.9172C0.389052 12.8317 0.2034 11.7992 0.0133276 10.8152C-0.026455 10.5857 0.0221681 10.3254 0.168037 10.0342C0.313907 9.72088 0.587964 9.54438 0.98579 9.50025C1.13166 9.50025 1.26869 9.53997 1.39246 9.6238C1.53833 9.68558 1.66651 9.77824 1.76818 9.90621C1.89195 10.0121 1.98919 10.1268 2.05108 10.2504C2.11296 10.3563 2.15716 10.449 2.17485 10.5328L2.18369 10.5284ZM33.9169 11.3756C31.7642 11.2697 29.6911 11.4374 27.702 11.8786C25.7129 12.3199 23.7502 12.9112 21.8009 13.6657C21.297 13.8555 20.9124 13.8334 20.6384 13.6039C20.3864 13.3745 20.2626 13.145 20.2626 12.9156C20.4085 12.5185 20.6693 12.1963 21.045 11.9448C25.3327 9.85767 29.6204 9.08547 33.9125 9.62822C34.1202 9.68999 34.2882 9.84885 34.4164 10.096C34.5623 10.3254 34.6153 10.524 34.5711 10.6916C34.5313 10.899 34.465 11.08 34.381 11.2256C34.297 11.3491 34.1423 11.4021 33.9125 11.38L33.9169 11.3756ZM29.4613 22.3055C29.4613 22.535 29.3773 22.7424 29.2093 22.9321C29.0634 23.0998 28.8734 23.2057 28.6435 23.2454C28.2236 23.3072 27.9539 23.2366 27.8257 23.0248C27.702 22.8174 27.6268 22.5747 27.6047 22.3055C27.5826 20.845 27.5517 19.3932 27.5119 17.9503C27.4898 16.4898 27.4279 15.0248 27.3218 13.5642C27.3218 13.4804 27.313 13.3877 27.2909 13.2818C27.2688 13.1583 27.2688 13.0436 27.2909 12.9376C27.313 12.8141 27.3528 12.7082 27.4147 12.6244C27.4986 12.5405 27.6224 12.4787 27.7904 12.4346C28.2722 12.3508 28.617 12.4346 28.8247 12.6861C29.0325 12.9156 29.1386 13.145 29.1386 13.3745C29.3065 14.8792 29.4126 16.3706 29.4524 17.8533C29.4922 19.3359 29.4922 20.8185 29.4524 22.3011L29.4613 22.3055ZM58.14 11.3756C58.4318 13.0656 58.6528 14.76 58.7987 16.4501C58.9445 18.1224 59.0595 19.7904 59.1434 21.4627C59.1655 21.6525 59.1434 21.8158 59.0816 21.9658C59.0197 22.0893 58.9357 22.2041 58.8296 22.31C58.7456 22.4159 58.6528 22.4997 58.5467 22.5615C58.4627 22.6233 58.392 22.6541 58.3257 22.6541C58.0958 22.6541 57.866 22.5482 57.6361 22.3408C57.4284 22.1114 57.3002 21.8202 57.2604 21.4627C57.1985 20.6685 57.1366 19.8742 57.0703 19.08C57.0085 18.2857 56.9333 17.4914 56.8493 16.6972C54.6524 17.3017 52.3318 17.8356 49.883 18.2945C49.9669 18.7534 50.0509 19.2123 50.1349 19.6712C50.2189 20.1301 50.3117 20.5891 50.4178 21.048C50.4399 21.1318 50.4488 21.2686 50.4488 21.4539C50.4709 21.6437 50.4576 21.8422 50.4178 22.0496C50.3957 22.257 50.3338 22.4556 50.2277 22.6453C50.1438 22.813 50.0067 22.9365 49.8211 23.0204C49.6531 23.0424 49.4763 22.9895 49.2862 22.8659C49.0961 22.7424 48.9724 22.6144 48.9105 22.4909C48.6585 21.8422 48.4198 21.07 48.19 20.1743C47.9822 19.2785 47.7922 18.3386 47.6242 17.3546C47.4783 16.353 47.3722 15.3381 47.3104 14.3144C47.2485 13.2907 47.2352 12.3111 47.2794 11.3712C47.3192 11.0579 47.4341 10.8373 47.6242 10.7137C47.8319 10.5681 48.022 10.4931 48.19 10.4931C48.3801 10.4931 48.5348 10.5549 48.6585 10.6828C48.8044 10.8064 48.9193 10.9652 49.0033 11.1506C49.0873 11.3403 49.1492 11.5256 49.1934 11.7154C49.2332 11.9051 49.2553 12.0595 49.2553 12.1831C49.2774 12.8494 49.3083 13.5113 49.3481 14.1555C49.3879 14.8042 49.463 15.4484 49.5691 16.0971C50.6344 15.9514 51.7969 15.7529 53.0523 15.5014C54.3077 15.2278 55.4879 14.9277 56.5974 14.5924C56.5576 14.1114 56.5045 13.6304 56.4427 13.1495C56.3808 12.6464 56.3189 12.1566 56.2526 11.6757C56.2526 11.3226 56.3587 11.0094 56.5664 10.7358C56.7963 10.4622 57.0261 10.3298 57.256 10.3298C57.424 10.3298 57.5919 10.4137 57.7599 10.5813C57.95 10.749 58.0737 11.0094 58.1356 11.3624L58.14 11.3756ZM70.6318 16.075C70.7157 16.2824 70.6318 16.4942 70.3798 16.7016C70.1279 16.8913 69.73 17.0149 69.1863 17.0766C68.2448 17.2002 67.2812 17.337 66.2999 17.4826C65.3186 17.6062 64.3108 17.7429 63.2897 17.8886C63.2499 18.952 63.2499 20.0198 63.2897 21.0833C63.7715 21.0833 64.3461 21.0436 65.0136 20.9597C65.7031 20.8538 66.406 20.7303 67.1176 20.5846C67.8293 20.439 68.51 20.2934 69.1554 20.1478C69.8228 19.9801 70.3886 19.8433 70.8484 19.7418C71.0782 19.6801 71.3169 19.6359 71.5689 19.6183C71.8208 19.5786 72.0374 19.5786 72.2275 19.6183C72.4352 19.6404 72.6032 19.711 72.7314 19.8389C72.8552 19.9625 72.9215 20.1434 72.9215 20.3728C72.9215 20.4346 72.8463 20.5273 72.7005 20.6552C72.5546 20.7788 72.3645 20.9156 72.1347 21.0612C71.9269 21.1848 71.697 21.3127 71.4451 21.4363C71.2152 21.5422 71.0075 21.626 70.8174 21.6878C69.5223 22.107 68.2448 22.4688 66.9894 22.7821C65.7341 23.0733 64.5097 23.2322 63.3162 23.2498C62.6266 23.2719 62.105 23.0954 61.747 22.7159C61.3934 22.3188 61.2033 21.754 61.1812 21.0259C61.1414 20.0022 61.1414 18.9696 61.1812 17.9239C60.8276 17.7165 60.6463 17.4208 60.6463 17.0458C60.6861 16.6486 60.8762 16.3795 61.2121 16.2294C61.2519 15.6249 61.2873 15.0204 61.305 14.4114C61.3271 13.7849 61.358 13.1671 61.3978 12.5626C61.1679 12.5229 60.9602 12.4081 60.7701 12.2184C60.6021 12.0287 60.5182 11.8213 60.5182 11.5918C60.5182 11.4021 60.5579 11.2388 60.6419 11.0888C60.7259 10.9211 60.8806 10.7975 61.1105 10.7137C61.4862 10.6299 61.9459 10.5372 62.4896 10.4313C63.0333 10.3254 63.5858 10.2327 64.1516 10.1489C64.7351 10.0651 65.2921 9.99446 65.8137 9.92827C66.3573 9.8665 66.8171 9.82237 67.1928 9.80472C67.6304 9.76501 68.0503 9.80472 68.4481 9.92827C68.8681 10.0518 69.2526 10.2945 69.6107 10.6475C69.6947 10.9388 69.6328 11.1594 69.4206 11.305C69.2305 11.4506 68.983 11.5433 68.6692 11.5874C68.3553 11.6315 67.9796 11.6801 67.5376 11.7418C67.1 11.7816 66.6402 11.8345 66.1584 11.8963C65.6987 11.9581 65.2258 12.0198 64.7484 12.086C64.2887 12.1257 63.851 12.1787 63.4311 12.2405V12.3949C63.4532 12.4346 63.4621 12.4787 63.4621 12.5185C63.4223 13.0612 63.3869 13.6039 63.3692 14.1467C63.3516 14.6894 63.3295 15.2322 63.3074 15.7749C64.187 15.6293 65.0843 15.5014 66.0037 15.3999C66.9231 15.2763 67.6569 15.1925 68.2006 15.1484C68.6382 15.1086 69.067 15.1572 69.4869 15.3028C69.9068 15.4484 70.2826 15.6999 70.6185 16.0529L70.6318 16.075ZM76.5373 23.3425C76.4754 22.5703 76.4223 21.6922 76.3825 20.7126C76.3604 19.733 76.3516 18.7269 76.3516 17.7076V14.6365C76.3737 13.6348 76.4046 12.7258 76.4444 11.9095C76.4444 11.7021 76.5373 11.5433 76.7273 11.4418C76.9351 11.3182 77.1031 11.2653 77.2312 11.2873C77.607 11.3271 77.8589 11.4638 77.9827 11.6933C78.1286 11.9007 78.2214 12.2052 78.2656 12.6023C78.2435 13.2686 78.2258 13.9393 78.2037 14.6056C78.2037 15.2719 78.2125 15.9426 78.2346 16.6089C79.1762 16.4412 79.9586 16.0971 80.5862 15.5764C81.236 15.0557 81.6957 14.46 81.9654 13.7893C82.0714 13.5378 82.1422 13.2377 82.1864 12.8803C82.2483 12.5273 82.2615 12.1699 82.2173 11.8169C82.1775 11.4418 82.0714 11.0976 81.9035 10.7843C81.7576 10.449 81.5278 10.1886 81.2139 10.0033C80.7542 9.72971 80.2503 9.58409 79.7066 9.56644C79.1629 9.54438 78.5971 9.62822 78.0136 9.81796C77.4478 9.98564 76.882 10.2548 76.3207 10.6343C75.777 11.0094 75.2642 11.4594 74.7824 11.9801C74.8443 12.2934 74.8045 12.5758 74.6586 12.8273C74.5128 13.0568 74.305 13.2245 74.031 13.3304C73.863 13.3701 73.6641 13.2907 73.4342 13.0789C73.2044 12.8494 73.0894 12.6199 73.0894 12.3905C73.0894 11.5565 73.3193 10.8328 73.779 10.2283C74.2608 9.60174 74.8576 9.08106 75.5692 8.66186C76.2809 8.24267 77.0456 7.92937 77.8589 7.72198C78.6767 7.51459 79.4281 7.40869 80.1177 7.40869C81.1432 7.40869 82.0007 7.71316 82.6903 8.31768C83.3799 8.90455 83.8528 9.64587 84.1004 10.5416C84.538 12.1081 84.423 13.5157 83.7556 14.7689C83.1058 16.022 82.0405 17.1075 80.5553 18.0253C81.6427 18.6916 82.6593 19.3315 83.6009 19.936C84.5645 20.5405 85.5237 21.198 86.4873 21.9084C86.6111 22.032 86.7481 22.2217 86.894 22.4732C87.062 22.7027 87.0398 23.0601 86.8321 23.5367C86.7083 23.8279 86.4873 23.9956 86.1735 24.0397C85.8817 24.0618 85.59 23.9647 85.2938 23.7573C84.8341 23.3822 84.3125 22.9939 83.7246 22.5968C83.1588 22.1776 82.5621 21.7716 81.9344 21.3745C81.3067 20.9553 80.6791 20.5582 80.0514 20.1831C79.4237 19.786 78.827 19.4197 78.2612 19.0888C78.2833 19.9228 78.2921 20.7611 78.2921 21.5951C78.3142 22.4114 78.3452 23.2145 78.3849 24.0088C78.3849 24.3 78.3009 24.5118 78.133 24.6354C77.965 24.7413 77.7573 24.7898 77.5053 24.7898C77.3815 24.7678 77.2666 24.706 77.1605 24.6001C77.0544 24.4765 76.9528 24.3397 76.8467 24.1941C76.7627 24.0265 76.692 23.872 76.6257 23.7264C76.5638 23.5587 76.5328 23.4352 76.5328 23.3513L76.5373 23.3425Z" fill="black"/>
<path d="M61.3006 9.63263C63.6919 9.01487 65.3982 7.49253 70.4815 9.69441C71.5335 10.1489 69.677 7.55872 71.8474 5.33037C74.0177 3.10643 71.4495 1.8312 70.4815 1.61939C69.5886 1.42083 67.8337 1.51349 66.9011 2.40042C65.9684 3.28735 64.2135 -0.202999 61.5569 1.45172C58.9048 3.11085 58.9269 3.76391 59.4175 4.57141C59.7977 5.19358 60.8276 6.06286 61.0707 6.96744C61.3138 7.87201 60.6419 9.7959 61.2917 9.62822L61.3006 9.63263Z" stroke="black" stroke-miterlimit="10"/>
<path d="M61.0309 8.75454C61.0309 8.75454 67.4404 5.99226 70.7556 8.6354" stroke="black" stroke-miterlimit="10"/>
<path d="M62.3614 8.27355C62.3791 4.77438 62.0211 4.61111 62.0211 4.61111" stroke="black" stroke-miterlimit="10"/>
<path d="M63.8069 7.87643C63.9306 5.04797 63.5991 4.71262 63.5991 4.71262" stroke="black" stroke-miterlimit="10"/>
<path d="M64.8854 7.66462C65.4999 6.07609 65.3496 5.64807 65.3496 5.64807" stroke="black" stroke-miterlimit="10"/>
<path d="M66.3928 7.50578C66.3928 7.50578 66.742 5.08328 66.4149 4.50964" stroke="black" stroke-miterlimit="10"/>
<path d="M67.405 7.50578C68.3951 4.80969 68.1741 4.61554 68.1741 4.61554" stroke="black" stroke-miterlimit="10"/>
<path d="M68.9609 7.6911C68.9609 7.6911 68.8018 4.96413 70.0925 3.78156" stroke="black" stroke-miterlimit="10"/>
<path d="M69.8892 8.12353L70.1632 6.15552" stroke="black" stroke-miterlimit="10"/>
</svg>
