<svg width="423" height="178" viewBox="0 0 423 178" fill="none" xmlns="http://www.w3.org/2000/svg">
<path d="M352.218 66.9747C353.84 70.489 355.475 74.0057 357.08 77.5313L352.218 66.9747Z" fill="#FFFEEB"/>
<path d="M352.218 66.9747C353.84 70.489 355.475 74.0057 357.08 77.5313" stroke="black" stroke-linecap="round" stroke-linejoin="round"/>
<path d="M334.807 29.2055C340.117 41.1564 345.726 52.9596 351.23 64.8233L334.807 29.2055Z" fill="#FFFEEB"/>
<path d="M334.807 29.2055C340.117 41.1564 345.726 52.9596 351.23 64.8233" stroke="black" stroke-linecap="round" stroke-linejoin="round"/>
<path d="M357.726 92.5507C352.045 83.0904 341.391 70.6962 336.013 61.0603C330.636 51.4244 327.146 40.4231 328.051 29.4298C328.303 26.4507 329.58 22.7927 332.56 22.5557C335.402 22.3299 337.244 25.4095 338.378 28.0324C346.115 45.9469 354.073 63.707 362.985 81.0698C374.295 103.112 379.97 119.575 393.116 140.666C395.249 144.092 399.336 151.422 400.258 155.35C401.181 159.279 399.701 164.114 395.936 165.569C392.689 166.821 388.897 165.125 386.664 162.464C384.417 159.801 383.371 156.361 382.326 153.042C375.32 130.705 370.125 113.2 357.729 92.5368L357.726 92.5507Z" fill="#FFFEEB" stroke="black" stroke-width="2" stroke-linecap="round" stroke-linejoin="round"/>
<path d="M388.098 164.293C388.252 163.063 388.421 161.837 388.575 160.607L388.098 164.293Z" fill="#FFFEEB"/>
<path d="M388.098 164.293C388.252 163.063 388.421 161.837 388.575 160.607" stroke="black" stroke-linecap="round" stroke-linejoin="round"/>
<path d="M390.348 165.772L390.72 163.683L390.348 165.772Z" fill="#FFFEEB"/>
<path d="M390.348 165.772L390.72 163.683" stroke="black" stroke-linecap="round" stroke-linejoin="round"/>
<path d="M392.175 165.351C392.479 164.493 392.75 163.621 392.978 162.743L392.175 165.351Z" fill="#FFFEEB"/>
<path d="M392.175 165.351C392.479 164.493 392.75 163.621 392.978 162.743" stroke="black" stroke-linecap="round" stroke-linejoin="round"/>
<path d="M386.026 160.605C386.285 159.998 386.55 159.398 386.817 158.785L386.026 160.605Z" fill="#FFFEEB"/>
<path d="M386.026 160.605C386.285 159.998 386.55 159.398 386.817 158.785" stroke="black" stroke-linecap="round" stroke-linejoin="round"/>
<path d="M384.406 158.211C384.829 157.209 385.238 156.205 385.661 155.203L384.406 158.211Z" fill="#FFFEEB"/>
<path d="M384.406 158.211C384.829 157.209 385.238 156.205 385.661 155.203" stroke="black" stroke-linecap="round" stroke-linejoin="round"/>
<path d="M394.758 165.33C394.867 164.839 394.99 164.351 395.099 163.861L394.758 165.33Z" fill="#FFFEEB"/>
<path d="M394.758 165.33C394.867 164.839 394.99 164.351 395.099 163.861" stroke="black" stroke-linecap="round" stroke-linejoin="round"/>
<path d="M396.865 164.873C396.951 163.825 397.115 162.784 397.363 161.758L396.865 164.873Z" fill="#FFFEEB"/>
<path d="M396.865 164.873C396.951 163.825 397.115 162.784 397.363 161.758" stroke="black" stroke-linecap="round" stroke-linejoin="round"/>
<path d="M383.457 154.875C383.685 154.398 383.908 153.914 384.137 153.437L383.457 154.875Z" fill="#FFFEEB"/>
<path d="M383.457 154.875C383.685 154.398 383.908 153.914 384.137 153.437" stroke="black" stroke-linecap="round" stroke-linejoin="round"/>
<path d="M382.202 151.641C382.491 151.025 382.787 150.417 383.068 149.806L382.202 151.641Z" fill="#FFFEEB"/>
<path d="M382.202 151.641C382.491 151.025 382.787 150.417 383.068 149.806" stroke="black" stroke-linecap="round" stroke-linejoin="round"/>
<path d="M381.055 148.248C381.374 147.708 381.684 147.175 382.003 146.635L381.055 148.248Z" fill="#FFFEEB"/>
<path d="M381.055 148.248C381.374 147.708 381.684 147.175 382.003 146.635" stroke="black" stroke-linecap="round" stroke-linejoin="round"/>
<path d="M113.687 40.0786C112.175 42.8998 110.662 45.7113 109.08 48.5395C107.385 51.5807 102.637 59.5923 100.384 62.2453C98.1432 64.9056 95.2882 67.1606 91.9609 68.1619C89.7825 68.8095 89.3249 69.1688 87.1607 69.8746C84.9966 70.5804 83.4061 73.7093 81.4553 76.5868C77.2828 82.748 73.4729 89.1704 69.3414 95.373C65.2466 101.515 61.1131 107.626 57.0812 113.814C53.0492 120.003 48.9833 126.179 45.2826 132.585C43.442 135.785 41.6861 139.037 40.0946 142.372C38.6453 145.405 37.5177 148.616 35.9497 151.585C35.2599 152.886 34.4637 154.132 33.462 155.212C30.4814 158.424 24.902 160.276 21.0975 157.359C18.0665 155.034 17.5046 150.518 18.7165 146.895C19.9284 143.272 22.5537 140.332 25.072 137.459C42.0122 118.159 60.6883 96.3214 72.9804 72.9303C73.8161 71.0058 76.9979 65.6333 76.9174 63.5835C76.8368 61.5337 77.0216 59.2643 77.2417 57.2231C77.5401 54.4935 78.9215 52.0234 80.2734 49.6428C85.4901 40.4764 94.8361 27.2392 101.272 18.8859C101.708 18.3154 102.502 18.1516 103.163 18.4941C103.966 18.9149 104.158 19.9902 103.65 20.7325C99.1649 27.341 94.8553 34.3287 90.9839 40.9618C90.6221 41.5859 90.4128 42.2859 90.395 43.011C90.3778 43.6124 90.4315 44.0832 91.0173 44.3308C91.8791 44.696 92.8705 44.2881 93.3688 43.507C97.8633 36.3916 101.897 29.2038 106.467 21.6377C106.796 21.0934 107.472 20.866 108.067 21.1112C108.067 21.1112 108.089 21.1162 108.101 21.1235C108.83 21.4081 109.134 22.2705 108.745 22.9527C104.687 30.0846 100.521 37.5725 96.4826 44.6584C96.1795 45.1858 95.8739 45.7447 95.8057 46.3483C95.7375 46.9519 95.9988 47.6394 96.5555 47.8942C97.4681 48.2984 98.4396 47.4321 98.9746 46.5904C103.561 39.473 107.269 32.6743 111.476 25.1866C111.865 24.5043 112.761 24.2949 113.43 24.7587C114.001 25.1542 114.17 25.9262 113.823 26.5262C109.567 33.9433 105.225 41.1346 100.974 48.5712C100.729 49.0018 100.485 49.4324 100.42 49.9221C100.355 50.4117 100.519 50.9582 100.94 51.205C101.315 51.4322 101.813 51.3617 102.192 51.1451C102.282 51.0922 102.37 51.0295 102.457 50.9668C103.828 49.8791 104.867 48.4504 105.754 46.9457L116.542 28.629C116.921 27.9904 117.715 27.7441 118.419 28.0553C119.184 28.4031 119.486 29.3382 119.08 30.0762C117.226 33.4343 115.448 36.7637 113.663 40.1051L113.687 40.0786Z" fill="#FFFEEB" stroke="black" stroke-width="2" stroke-linecap="round" stroke-linejoin="round"/>
<path d="M81.6285 55.2103C80.5973 58.0167 79.7688 61.0617 79.9226 64.082L81.6285 55.2103Z" fill="#FFFEEB"/>
<path d="M81.6285 55.2103C80.5973 58.0167 79.7688 61.0617 79.9226 64.082" stroke="black" stroke-linecap="round" stroke-linejoin="round"/>
<path d="M86.7811 45.7404C84.9545 47.9902 83.5531 50.5888 82.4134 53.2468L86.7811 45.7404Z" fill="#FFFEEB"/>
<path d="M86.7811 45.7404C84.9545 47.9902 83.5531 50.5888 82.4134 53.2468" stroke="black" stroke-linecap="round" stroke-linejoin="round"/>
<path d="M22.1519 158.047C22.1868 157.308 22.2119 156.57 22.2467 155.831L22.1519 158.047Z" fill="#FFFEEB"/>
<path d="M22.1519 158.047C22.1868 157.308 22.2119 156.57 22.2467 155.831" stroke="black" stroke-linecap="round" stroke-linejoin="round"/>
<path d="M24.4522 158.904C24.4431 157.146 24.434 155.387 24.4249 153.629L24.4522 158.904Z" fill="#FFFEEB"/>
<path d="M24.4522 158.904C24.4431 157.146 24.434 155.387 24.4249 153.629" stroke="black" stroke-linecap="round" stroke-linejoin="round"/>
<path d="M26.5682 158.128C26.584 157.31 26.5997 156.493 26.6155 155.676L26.5682 158.128Z" fill="#FFFEEB"/>
<path d="M26.5682 158.128C26.584 157.31 26.5997 156.493 26.6155 155.676" stroke="black" stroke-linecap="round" stroke-linejoin="round"/>
<path d="M28.7651 158.227C28.8148 156.331 28.8622 154.425 28.9216 152.526L28.7651 158.227Z" fill="#FFFEEB"/>
<path d="M28.7651 158.227C28.8148 156.331 28.8622 154.425 28.9216 152.526" stroke="black" stroke-linecap="round" stroke-linejoin="round"/>
<path d="M31.1886 156.48C31.1456 155.8 31.1146 155.128 31.0716 154.449L31.1886 156.48Z" fill="#FFFEEB"/>
<path d="M31.1886 156.48C31.1456 155.8 31.1146 155.128 31.0716 154.449" stroke="black" stroke-linecap="round" stroke-linejoin="round"/>
<path d="M33.1692 155.613C33.0461 154.397 32.9133 153.184 32.7925 151.978L33.1692 155.613Z" fill="#FFFEEB"/>
<path d="M33.1692 155.613C33.0461 154.397 32.9133 153.184 32.7925 151.978" stroke="black" stroke-linecap="round" stroke-linejoin="round"/>
<path d="M34.9695 152.206C34.6122 150.749 34.2549 149.292 33.9073 147.833L34.9695 152.206Z" fill="#FFFEEB"/>
<path d="M34.9695 152.206C34.6122 150.749 34.2549 149.292 33.9073 147.833" stroke="black" stroke-linecap="round" stroke-linejoin="round"/>
<path d="M36.4634 149.523C36.2157 148.513 35.9583 147.505 35.7008 146.498L36.4634 149.523Z" fill="#FFFEEB"/>
<path d="M36.4634 149.523C36.2157 148.513 35.9583 147.505 35.7008 146.498" stroke="black" stroke-linecap="round" stroke-linejoin="round"/>
<path d="M37.8934 145.95C37.5583 144.961 37.2328 143.97 36.8977 142.981L37.8934 145.95Z" fill="#FFFEEB"/>
<path d="M37.8934 145.95C37.5583 144.961 37.2328 143.97 36.8977 142.981" stroke="black" stroke-linecap="round" stroke-linejoin="round"/>
<path d="M39.4733 142.483L38.7587 139.57L39.4733 142.483Z" fill="#FFFEEB"/>
<path d="M39.4733 142.483L38.7587 139.57" stroke="black" stroke-linecap="round" stroke-linejoin="round"/>
<path d="M35.5898 129.546C37.4436 127.197 39.2974 124.848 41.1512 122.499L35.5898 129.546Z" fill="#FFFEEB"/>
<path d="M35.5898 129.546C37.4436 127.197 39.2974 124.848 41.1512 122.499" stroke="black" stroke-linecap="round" stroke-linejoin="round"/>
<path d="M222.737 1.31812C259.437 4.61812 292.447 33.3281 300.787 69.2181C309.127 105.108 292.177 145.438 260.697 164.588C229.217 183.738 185.607 180.238 157.577 156.328C146.577 146.948 138.267 134.628 133.137 121.148C127.947 107.538 125.937 92.6881 127.537 78.2081C129.077 64.2881 133.977 51.0981 142.017 39.6381C150.437 27.6281 161.927 17.8381 174.947 11.1081C187.957 4.38812 202.597 0.70812 217.267 1.01812C219.097 1.05812 220.917 1.15812 222.737 1.31812Z" fill="#FFFEEB" stroke="black" stroke-width="2" stroke-linecap="round" stroke-linejoin="round"/>
<path d="M174.657 48.3381C163.887 56.9381 159.657 77.2981 159.127 82.0881C158.107 91.3381 159.387 100.818 162.697 109.508C165.977 118.118 171.287 125.988 178.307 131.978C187.957 140.218 200.507 144.658 213.167 145.088C213.167 145.088 221.927 146.518 241.847 142.058" fill="#FFFEEB"/>
<path d="M174.657 48.3381C163.887 56.9381 159.657 77.2981 159.127 82.0881C158.107 91.3381 159.387 100.818 162.697 109.508C165.977 118.118 171.287 125.988 178.307 131.978C187.957 140.218 200.507 144.658 213.167 145.088C213.167 145.088 221.927 146.518 241.847 142.058" stroke="black" stroke-width="2" stroke-linecap="round" stroke-linejoin="round"/>
<path d="M271.587 96.0181C269.127 110.548 264.047 118.498 254.367 128.048L271.587 96.0181Z" fill="#FFFEEB"/>
<path d="M271.587 96.0181C269.127 110.548 264.047 118.498 254.367 128.048" stroke="black" stroke-width="2" stroke-linecap="round" stroke-linejoin="round"/>
<path d="M264.387 62.4381C265.857 64.6781 268.467 72.3881 269.617 77.9781L264.387 62.4381Z" fill="#FFFEEB"/>
<path d="M264.387 62.4381C265.857 64.6781 268.467 72.3881 269.617 77.9781" stroke="black" stroke-width="2" stroke-linecap="round" stroke-linejoin="round"/>
<path d="M189.397 39.2381C197.707 34.9481 207.057 32.5981 216.427 32.7981C217.597 32.8181 218.757 32.8881 219.927 32.9881C222.747 33.2381 225.537 33.7281 228.267 34.4381" fill="#FFFEEB"/>
<path d="M189.397 39.2381C197.707 34.9481 207.057 32.5981 216.427 32.7981C217.597 32.8181 218.757 32.8881 219.927 32.9881C222.747 33.2381 225.537 33.7281 228.267 34.4381" stroke="black" stroke-width="2" stroke-linecap="round" stroke-linejoin="round"/>
<path d="M297.387 90.4181C297.337 92.0881 297.247 93.7481 297.137 95.4081L297.387 90.4181Z" fill="#FFFEEB"/>
<path d="M297.387 90.4181C297.337 92.0881 297.247 93.7481 297.137 95.4081" stroke="black" stroke-linecap="round" stroke-linejoin="round"/>
<path d="M263.887 23.1281C279.437 35.3081 292.527 52.1781 296.457 71.8881C297.567 77.4281 297.907 83.1181 297.427 88.7581" fill="#FFFEEB"/>
<path d="M263.887 23.1281C279.437 35.3081 292.527 52.1781 296.457 71.8881C297.567 77.4281 297.907 83.1181 297.427 88.7581" stroke="black" stroke-linecap="round" stroke-linejoin="round"/>
<path d="M251.137 14.4981C254.957 16.7181 258.647 19.1581 262.177 21.8181L251.137 14.4981Z" fill="#FFFEEB"/>
<path d="M251.137 14.4981C254.957 16.7181 258.647 19.1581 262.177 21.8181" stroke="black" stroke-linecap="round" stroke-linejoin="round"/>
<path d="M265.917 155.028C265.807 155.268 265.527 155.388 265.277 155.278C265.027 155.168 264.917 154.888 265.027 154.638C265.137 154.388 265.417 154.278 265.667 154.388C265.917 154.498 266.027 154.778 265.917 155.028Z" fill="#FFFEEB"/>
<path d="M258.327 159.818C258.127 159.648 258.097 159.338 258.267 159.138C258.437 158.938 258.747 158.908 258.947 159.078C259.147 159.248 259.177 159.558 259.007 159.758C258.837 159.958 258.527 159.988 258.327 159.818Z" fill="#FFFEEB"/>
<path d="M254.657 162.238C254.457 162.068 254.427 161.758 254.597 161.558C254.767 161.358 255.077 161.328 255.277 161.498C255.477 161.668 255.507 161.978 255.337 162.178C255.167 162.378 254.857 162.408 254.657 162.238Z" fill="#FFFEEB"/>
<path d="M270.567 151.978C270.457 152.218 270.177 152.338 269.927 152.228C269.677 152.118 269.567 151.838 269.677 151.588C269.787 151.348 270.067 151.228 270.317 151.338C270.567 151.448 270.677 151.728 270.567 151.978Z" fill="#FFFEEB"/>
<path d="M266.427 152.568C266.177 152.478 266.037 152.208 266.127 151.958C266.217 151.708 266.487 151.568 266.737 151.658C266.987 151.748 267.127 152.018 267.037 152.268C266.947 152.518 266.677 152.658 266.427 152.568Z" fill="#FFFEEB"/>
<path d="M269.617 149.628C269.367 149.538 269.227 149.268 269.317 149.018C269.407 148.768 269.677 148.628 269.927 148.718C270.177 148.808 270.317 149.078 270.227 149.328C270.137 149.578 269.867 149.718 269.617 149.628Z" fill="#FFFEEB"/>
<path d="M272.977 149.548C272.727 149.458 272.587 149.188 272.677 148.938C272.767 148.688 273.037 148.548 273.287 148.638C273.537 148.728 273.677 148.998 273.587 149.248C273.497 149.498 273.227 149.638 272.977 149.548Z" fill="#FFFEEB"/>
<path d="M255.787 159.228C255.567 159.378 255.267 159.308 255.117 159.088C254.967 158.868 255.037 158.568 255.257 158.418C255.477 158.268 255.777 158.338 255.927 158.558C256.077 158.778 256.007 159.078 255.787 159.228Z" fill="#FFFEEB"/>
<path d="M259.647 157.138C259.427 157.288 259.127 157.218 258.977 156.998C258.827 156.778 258.897 156.478 259.117 156.328C259.337 156.178 259.637 156.248 259.787 156.468C259.937 156.688 259.867 156.988 259.647 157.138Z" fill="#FFFEEB"/>
<path d="M262.257 157.728C262.037 157.878 261.737 157.808 261.587 157.588C261.437 157.368 261.507 157.068 261.727 156.918C261.947 156.768 262.247 156.838 262.397 157.058C262.547 157.278 262.477 157.578 262.257 157.728Z" fill="#FFFEEB"/>
<path d="M263.027 155.028C262.917 155.268 262.637 155.388 262.387 155.278C262.137 155.168 262.027 154.888 262.137 154.638C262.247 154.398 262.527 154.278 262.777 154.388C263.027 154.498 263.137 154.778 263.027 155.028Z" fill="#FFFEEB"/>
<path d="M152.027 150.818L152.927 149.688L152.027 150.818Z" fill="#FFFEEB"/>
<path d="M152.027 150.818L152.927 149.688" stroke="black" stroke-linecap="round" stroke-linejoin="round"/>
<path d="M153.747 152.648C154.617 151.228 155.487 149.818 156.367 148.398L153.747 152.648Z" fill="#FFFEEB"/>
<path d="M153.747 152.648C154.617 151.228 155.487 149.818 156.367 148.398" stroke="black" stroke-linecap="round" stroke-linejoin="round"/>
<path d="M155.047 154.628C155.557 153.878 156.067 153.128 156.577 152.388L155.047 154.628Z" fill="#FFFEEB"/>
<path d="M155.047 154.628C155.557 153.878 156.067 153.128 156.577 152.388" stroke="black" stroke-linecap="round" stroke-linejoin="round"/>
<path d="M157.157 156.098C158.347 154.518 159.527 152.928 160.717 151.348L157.157 156.098Z" fill="#FFFEEB"/>
<path d="M157.157 156.098C158.347 154.518 159.527 152.928 160.717 151.348" stroke="black" stroke-linecap="round" stroke-linejoin="round"/>
<path d="M159.017 158.318C159.387 157.808 159.747 157.298 160.117 156.778L159.017 158.318Z" fill="#FFFEEB"/>
<path d="M159.017 158.318C159.387 157.808 159.747 157.298 160.117 156.778" stroke="black" stroke-linecap="round" stroke-linejoin="round"/>
<path d="M160.637 159.678C162.107 158.118 163.407 156.398 164.527 154.568L160.637 159.678Z" fill="#FFFEEB"/>
<path d="M160.637 159.678C162.107 158.118 163.407 156.398 164.527 154.568" stroke="black" stroke-linecap="round" stroke-linejoin="round"/>
<path d="M150.137 149.408C150.827 148.558 151.517 147.718 152.197 146.868L150.137 149.408Z" fill="#FFFEEB"/>
<path d="M150.137 149.408C150.827 148.558 151.517 147.718 152.197 146.868" stroke="black" stroke-linecap="round" stroke-linejoin="round"/>
<path d="M148.427 147.648C148.847 147.008 149.337 146.398 149.887 145.858L148.427 147.648Z" fill="#FFFEEB"/>
<path d="M148.427 147.648C148.847 147.008 149.337 146.398 149.887 145.858" stroke="black" stroke-linecap="round" stroke-linejoin="round"/>
<path d="M162.687 160.628C163.477 159.478 164.277 158.318 165.067 157.168L162.687 160.628Z" fill="#FFFEEB"/>
<path d="M162.687 160.628C163.477 159.478 164.277 158.318 165.067 157.168" stroke="black" stroke-linecap="round" stroke-linejoin="round"/>
<path d="M164.827 162.138C165.287 161.368 165.747 160.598 166.207 159.828L164.827 162.138Z" fill="#FFFEEB"/>
<path d="M164.827 162.138C165.287 161.368 165.747 160.598 166.207 159.828" stroke="black" stroke-linecap="round" stroke-linejoin="round"/>
<path d="M166.287 162.888C167.057 161.938 167.767 160.928 168.397 159.868L166.287 162.888Z" fill="#FFFEEB"/>
<path d="M166.287 162.888C167.057 161.938 167.767 160.928 168.397 159.868" stroke="black" stroke-linecap="round" stroke-linejoin="round"/>
<path d="M167.637 164.128C167.927 163.618 168.227 163.108 168.517 162.598L167.637 164.128Z" fill="#FFFEEB"/>
<path d="M167.637 164.128C167.927 163.618 168.227 163.108 168.517 162.598" stroke="black" stroke-linecap="round" stroke-linejoin="round"/>
<path d="M168.967 164.688C169.777 163.538 170.587 162.398 171.397 161.248L168.967 164.688Z" fill="#FFFEEB"/>
<path d="M168.967 164.688C169.777 163.538 170.587 162.398 171.397 161.248" stroke="black" stroke-linecap="round" stroke-linejoin="round"/>
<path d="M171.177 165.928L171.987 164.658L171.177 165.928Z" fill="#FFFEEB"/>
<path d="M171.177 165.928L171.987 164.658" stroke="black" stroke-linecap="round" stroke-linejoin="round"/>
<path d="M172.587 167.088C173.527 165.848 174.397 164.548 175.167 163.188L172.587 167.088Z" fill="#FFFEEB"/>
<path d="M172.587 167.088C173.527 165.848 174.397 164.548 175.167 163.188" stroke="black" stroke-linecap="round" stroke-linejoin="round"/>
<path d="M174.557 168.308C174.987 167.678 175.407 167.048 175.837 166.418L174.557 168.308Z" fill="#FFFEEB"/>
<path d="M174.557 168.308C174.987 167.678 175.407 167.048 175.837 166.418" stroke="black" stroke-linecap="round" stroke-linejoin="round"/>
<path d="M176.337 168.968C177.037 167.898 177.747 166.828 178.447 165.758L176.337 168.968Z" fill="#FFFEEB"/>
<path d="M176.337 168.968C177.037 167.898 177.747 166.828 178.447 165.758" stroke="black" stroke-linecap="round" stroke-linejoin="round"/>
<path d="M178.287 169.968C178.597 169.498 178.917 169.028 179.227 168.558L178.287 169.968Z" fill="#FFFEEB"/>
<path d="M178.287 169.968C178.597 169.498 178.917 169.028 179.227 168.558" stroke="black" stroke-linecap="round" stroke-linejoin="round"/>
<path d="M179.877 170.618C180.447 169.538 181.167 168.538 182.017 167.648L179.877 170.618Z" fill="#FFFEEB"/>
<path d="M179.877 170.618C180.447 169.538 181.167 168.538 182.017 167.648" stroke="black" stroke-linecap="round" stroke-linejoin="round"/>
<path d="M176.397 165.638C176.547 165.428 176.697 165.218 176.847 165.008L176.397 165.638Z" fill="#FFFEEB"/>
<path d="M176.397 165.638C176.547 165.428 176.697 165.218 176.847 165.008" stroke="black" stroke-linecap="round" stroke-linejoin="round"/>
<path d="M172.437 163.708C172.517 163.568 172.607 163.428 172.687 163.288L172.437 163.708Z" fill="#FFFEEB"/>
<path d="M172.437 163.708C172.517 163.568 172.607 163.428 172.687 163.288" stroke="black" stroke-linecap="round" stroke-linejoin="round"/>
<path d="M168.907 161.788C168.977 161.678 169.047 161.568 169.117 161.458L168.907 161.788Z" fill="#FFFEEB"/>
<path d="M168.907 161.788C168.977 161.678 169.047 161.568 169.117 161.458" stroke="black" stroke-linecap="round" stroke-linejoin="round"/>
<path d="M165.497 156.278C165.547 156.198 165.607 156.118 165.657 156.028L165.497 156.278Z" fill="#FFFEEB"/>
<path d="M165.497 156.278C165.547 156.198 165.607 156.118 165.657 156.028" stroke="black" stroke-linecap="round" stroke-linejoin="round"/>
<path d="M150.477 145.088C150.657 144.898 150.837 144.698 151.007 144.508L150.477 145.088Z" fill="#FFFEEB"/>
<path d="M150.477 145.088C150.657 144.898 150.837 144.698 151.007 144.508" stroke="black" stroke-linecap="round" stroke-linejoin="round"/>
<path d="M146.937 145.558C147.727 144.608 148.517 143.648 149.297 142.698L146.937 145.558Z" fill="#FFFEEB"/>
<path d="M146.937 145.558C147.727 144.608 148.517 143.648 149.297 142.698" stroke="black" stroke-linecap="round" stroke-linejoin="round"/>
<path d="M145.257 143.588C145.637 143.008 146.017 142.428 146.407 141.858L145.257 143.588Z" fill="#FFFEEB"/>
<path d="M145.257 143.588C145.637 143.008 146.017 142.428 146.407 141.858" stroke="black" stroke-linecap="round" stroke-linejoin="round"/>
<path d="M144.127 142.258C144.647 141.498 145.177 140.748 145.697 139.988L144.127 142.258Z" fill="#FFFEEB"/>
<path d="M144.127 142.258C144.647 141.498 145.177 140.748 145.697 139.988" stroke="black" stroke-linecap="round" stroke-linejoin="round"/>
<path d="M181.997 171.698C182.237 171.368 182.477 171.028 182.717 170.698L181.997 171.698Z" fill="#FFFEEB"/>
<path d="M181.997 171.698C182.237 171.368 182.477 171.028 182.717 170.698" stroke="black" stroke-linecap="round" stroke-linejoin="round"/>
<path d="M184.957 171.948C185.577 171.128 186.187 170.308 186.807 169.488L184.957 171.948Z" fill="#FFFEEB"/>
<path d="M184.957 171.948C185.577 171.128 186.187 170.308 186.807 169.488" stroke="black" stroke-linecap="round" stroke-linejoin="round"/>
<path d="M187.297 173.018C187.687 172.538 188.067 172.068 188.457 171.588L187.297 173.018Z" fill="#FFFEEB"/>
<path d="M187.297 173.018C187.687 172.538 188.067 172.068 188.457 171.588" stroke="black" stroke-linecap="round" stroke-linejoin="round"/>
<path d="M189.287 173.888C190.017 173.238 190.667 172.498 191.207 171.688L189.287 173.888Z" fill="#FFFEEB"/>
<path d="M189.287 173.888C190.017 173.238 190.667 172.498 191.207 171.688" stroke="black" stroke-linecap="round" stroke-linejoin="round"/>
<path d="M191.927 174.748L192.877 173.518L191.927 174.748Z" fill="#FFFEEB"/>
<path d="M191.927 174.748L192.877 173.518" stroke="black" stroke-linecap="round" stroke-linejoin="round"/>
<path d="M194.087 175.008C194.587 174.418 195.087 173.838 195.577 173.248L194.087 175.008Z" fill="#FFFEEB"/>
<path d="M194.087 175.008C194.587 174.418 195.087 173.838 195.577 173.248" stroke="black" stroke-linecap="round" stroke-linejoin="round"/>
<path d="M185.927 142.908C187.107 143.458 188.327 143.938 189.567 144.348L185.927 142.908Z" fill="#FFFEEB"/>
<path d="M185.927 142.908C187.107 143.458 188.327 143.938 189.567 144.348" stroke="black" stroke-linecap="round" stroke-linejoin="round"/>
<path d="M176.587 136.928C178.947 138.878 181.477 140.608 184.187 142.048L176.587 136.928Z" fill="#FFFEEB"/>
<path d="M176.587 136.928C178.947 138.878 181.477 140.608 184.187 142.048" stroke="black" stroke-linecap="round" stroke-linejoin="round"/>
<path d="M155.017 95.9981C156.837 110.968 164.267 125.118 175.027 135.598L155.017 95.9981Z" fill="#FFFEEB"/>
<path d="M155.017 95.9981C156.837 110.968 164.267 125.118 175.027 135.598" stroke="black" stroke-linecap="round" stroke-linejoin="round"/>
<path d="M157.647 71.0581C155.057 78.3781 154.147 86.2281 154.807 93.9681L157.647 71.0581Z" fill="#FFFEEB"/>
<path d="M157.647 71.0581C155.057 78.3781 154.147 86.2281 154.807 93.9681" stroke="black" stroke-linecap="round" stroke-linejoin="round"/>
<path d="M215.797 105.958C225.237 105.758 234.187 98.9681 236.927 89.9281C239.667 80.8881 235.997 70.2781 228.247 64.8681C220.507 59.4581 209.277 59.6581 201.737 65.3381C184.707 78.1681 194.467 106.408 215.807 105.948L215.797 105.958Z" fill="#FFFEEB" stroke="black" stroke-width="2" stroke-linecap="round" stroke-linejoin="round"/>
<path d="M215.727 102.908C223.887 102.738 231.617 96.8681 233.987 89.0581C236.357 81.2481 233.177 72.0781 226.487 67.3981C219.797 62.7181 210.097 62.8981 203.577 67.8081C188.857 78.8881 197.297 103.298 215.737 102.908H215.727Z" fill="#FFFEEB" stroke="black" stroke-width="2" stroke-linecap="round" stroke-linejoin="round"/>
<path d="M213.017 77.3281C212.947 75.9681 214.287 74.9581 215.577 74.5381C216.867 74.1181 218.307 74.0081 219.417 73.2181C220.527 72.4281 221.027 70.5581 219.917 69.7681" fill="#FFFEEB"/>
<path d="M213.017 77.3281C212.947 75.9681 214.287 74.9581 215.577 74.5381C216.867 74.1181 218.307 74.0081 219.417 73.2181C220.527 72.4281 221.027 70.5581 219.917 69.7681" stroke="black" stroke-width="2" stroke-linecap="round" stroke-linejoin="round"/>
<path d="M222.917 75.4881C224.367 75.1881 225.947 75.6781 226.987 76.7281C228.027 77.7881 228.477 79.3781 228.157 80.8181C227.867 82.1181 227.007 83.4781 227.607 84.6681" fill="#FFFEEB"/>
<path d="M222.917 75.4881C224.367 75.1881 225.947 75.6781 226.987 76.7281C228.027 77.7881 228.477 79.3781 228.157 80.8181C227.867 82.1181 227.007 83.4781 227.607 84.6681" stroke="black" stroke-width="2" stroke-linecap="round" stroke-linejoin="round"/>
<path d="M223.167 92.2281C221.947 92.1881 220.987 93.2781 220.447 94.3781C219.907 95.4781 219.557 96.7181 218.677 97.5581C217.797 98.3981 216.087 98.5381 215.517 97.4581" fill="#FFFEEB"/>
<path d="M223.167 92.2281C221.947 92.1881 220.987 93.2781 220.447 94.3781C219.907 95.4781 219.557 96.7181 218.677 97.5581C217.797 98.3981 216.087 98.5381 215.517 97.4581" stroke="black" stroke-width="2" stroke-linecap="round" stroke-linejoin="round"/>
<path d="M206.637 69.9581C205.117 70.8481 204.107 72.5381 204.047 74.2981C203.987 76.0581 204.887 77.8181 206.347 78.7981" fill="#FFFEEB"/>
<path d="M206.637 69.9581C205.117 70.8481 204.107 72.5381 204.047 74.2981C203.987 76.0581 204.887 77.8181 206.347 78.7981" stroke="black" stroke-width="2" stroke-linecap="round" stroke-linejoin="round"/>
<path d="M212.837 84.2281C211.587 84.8081 210.887 86.1181 210.047 87.2181C209.217 88.3181 207.867 89.3281 206.557 88.8881C205.807 88.6381 205.287 87.9681 204.827 87.3081C204.367 86.6481 203.907 85.9681 203.187 85.6181C202.467 85.2781 201.437 85.4781 201.167 86.2181" fill="#FFFEEB"/>
<path d="M212.837 84.2281C211.587 84.8081 210.887 86.1181 210.047 87.2181C209.217 88.3181 207.867 89.3281 206.557 88.8881C205.807 88.6381 205.287 87.9681 204.827 87.3081C204.367 86.6481 203.907 85.9681 203.187 85.6181C202.467 85.2781 201.437 85.4781 201.167 86.2181" stroke="black" stroke-width="2" stroke-linecap="round" stroke-linejoin="round"/>
<path d="M179.277 92.9581C176.657 94.3181 173.597 94.9881 171.447 97.0081C169.397 98.9381 168.507 101.768 167.697 104.468C166.817 107.418 165.927 110.438 165.987 113.518C166.047 116.598 167.217 119.818 169.717 121.618C172.227 123.418 176.177 123.258 178.027 120.798C178.987 119.518 179.387 117.718 180.777 116.918C181.687 116.398 182.797 116.438 183.807 116.148C187.097 115.218 188.397 111.178 188.217 107.758C188.037 104.348 186.927 100.918 187.597 97.5681C187.997 95.5881 188.997 93.7781 189.577 91.8481C190.157 89.9181 190.227 87.6281 188.937 86.0681C187.457 84.2681 184.867 84.6681 183.757 86.4481C183.197 87.3581 183.397 88.8381 182.767 89.8781C181.977 91.1981 180.627 92.2581 179.277 92.9581Z" fill="#FFFEEB" stroke="black" stroke-width="2" stroke-linecap="round" stroke-linejoin="round"/>
<path d="M258.047 74.5281C259.907 72.2281 262.447 70.3981 263.617 67.6881C264.727 65.0981 264.417 62.1481 264.077 59.3481C263.707 56.2881 263.317 53.1681 262.037 50.3681C260.747 47.5681 258.397 45.0781 255.387 44.4281C252.377 43.7781 248.807 45.4981 248.097 48.4981C247.727 50.0581 248.077 51.8681 247.127 53.1581C246.507 53.9981 245.467 54.4081 244.657 55.0681C242.007 57.2281 242.437 61.4581 243.957 64.5181C245.487 67.5781 247.867 70.2681 248.587 73.6081C249.007 75.5881 248.817 77.6381 249.057 79.6481C249.307 81.6581 250.147 83.7781 251.947 84.6981C254.017 85.7581 256.247 84.3581 256.537 82.2881C256.687 81.2281 255.917 79.9581 256.077 78.7381C256.277 77.2081 257.087 75.7081 258.047 74.5181V74.5281Z" fill="#FFFEEB" stroke="black" stroke-width="2" stroke-linecap="round" stroke-linejoin="round"/>
<path d="M218.807 60.5081C218.317 58.4381 218.277 56.2181 219.037 54.2281C219.807 52.2481 221.467 50.5481 223.537 50.0581C225.457 49.6081 227.447 50.2081 229.307 50.8281C234.507 52.5481 238.597 54.0381 243.647 56.1681" fill="#FFFEEB"/>
<path d="M218.807 60.5081C218.317 58.4381 218.277 56.2181 219.037 54.2281C219.807 52.2481 221.467 50.5481 223.537 50.0581C225.457 49.6081 227.447 50.2081 229.307 50.8281C234.507 52.5481 238.597 54.0381 243.647 56.1681" stroke="black" stroke-width="2" stroke-linecap="round" stroke-linejoin="round"/>
<path d="M235.567 73.7081C238.087 77.8881 243.497 80.3281 248.227 79.1081L235.567 73.7081Z" fill="#FFFEEB"/>
<path d="M235.567 73.7081C238.087 77.8881 243.497 80.3281 248.227 79.1081" stroke="black" stroke-width="2" stroke-linecap="round" stroke-linejoin="round"/>
<path d="M176.137 122.298C178.837 126.478 181.207 130.468 184.637 134.078C188.067 137.688 192.277 140.698 197.097 141.928C200.987 142.928 205.077 142.728 209.097 142.528C212.297 142.368 215.947 141.978 217.827 139.378C219.137 137.578 219.207 135.118 218.627 132.968C216.787 126.128 209.537 122.198 202.627 120.608C195.717 119.028 189.217 119.298 182.757 116.368" fill="#FFFEEB"/>
<path d="M176.137 122.298C178.837 126.478 181.207 130.468 184.637 134.078C188.067 137.688 192.277 140.698 197.097 141.928C200.987 142.928 205.077 142.728 209.097 142.528C212.297 142.368 215.947 141.978 217.827 139.378C219.137 137.578 219.207 135.118 218.627 132.968C216.787 126.128 209.537 122.198 202.627 120.608C195.717 119.028 189.217 119.298 182.757 116.368" stroke="black" stroke-width="2" stroke-linecap="round" stroke-linejoin="round"/>
<path d="M222.437 49.7981C222.627 48.1481 221.097 46.7381 219.487 46.3081C217.877 45.8781 216.187 46.1381 214.527 46.0881C209.227 45.9481 204.447 42.7881 199.187 42.0981C195.987 41.6781 192.367 42.0681 189.897 39.9881C189.247 39.4381 188.697 38.7281 187.907 38.4381C186.577 37.9381 185.127 38.7781 184.117 39.7681C183.107 40.7581 182.247 41.9881 180.957 42.5681C180.097 42.9481 179.127 43.0081 178.247 43.3281C175.687 44.2481 174.347 47.2681 174.647 49.9681C174.947 52.6681 176.547 55.0581 178.367 57.0681C179.717 58.5581 181.387 59.9981 183.397 60.0981C185.107 60.1781 186.777 59.2581 188.467 59.5081C190.127 59.7481 191.417 61.0381 192.897 61.8181C196.457 63.6781 200.647 61.5981 203.187 58.4581C203.217 58.4281 205.167 55.7881 205.997 54.8181C206.827 53.8381 207.907 52.9481 209.187 52.8981C210.007 52.8681 210.797 53.1881 211.587 53.4281C213.977 54.1681 216.507 54.2381 219.007 54.3081" fill="#FFFEEB"/>
<path d="M222.437 49.7981C222.627 48.1481 221.097 46.7381 219.487 46.3081C217.877 45.8781 216.187 46.1381 214.527 46.0881C209.227 45.9481 204.447 42.7881 199.187 42.0981C195.987 41.6781 192.367 42.0681 189.897 39.9881C189.247 39.4381 188.697 38.7281 187.907 38.4381C186.577 37.9381 185.127 38.7781 184.117 39.7681C183.107 40.7581 182.247 41.9881 180.957 42.5681C180.097 42.9481 179.127 43.0081 178.247 43.3281C175.687 44.2481 174.347 47.2681 174.647 49.9681C174.947 52.6681 176.547 55.0581 178.367 57.0681C179.717 58.5581 181.387 59.9981 183.397 60.0981C185.107 60.1781 186.777 59.2581 188.467 59.5081C190.127 59.7481 191.417 61.0381 192.897 61.8181C196.457 63.6781 200.647 61.5981 203.187 58.4581C203.217 58.4281 205.167 55.7881 205.997 54.8181C206.827 53.8381 207.907 52.9481 209.187 52.8981C210.007 52.8681 210.797 53.1881 211.587 53.4281C213.977 54.1681 216.507 54.2381 219.007 54.3081" stroke="black" stroke-width="2" stroke-linecap="round" stroke-linejoin="round"/>
<path d="M216.807 123.398C217.347 124.968 219.707 127.368 221.347 127.058C222.977 126.748 224.927 125.308 226.447 124.638C231.297 122.488 236.967 123.278 242.007 121.638C245.077 120.638 248.177 118.728 251.297 119.538C252.117 119.748 252.917 120.158 253.767 120.078C255.177 119.958 256.137 118.578 256.617 117.248C257.097 115.918 257.347 114.438 258.267 113.358C258.877 112.648 259.727 112.178 260.387 111.508C262.297 109.578 262.207 106.268 260.777 103.958C259.347 101.648 256.877 100.188 254.357 99.1481C252.497 98.3781 250.367 97.8081 248.507 98.5881C246.927 99.2481 245.817 100.798 244.187 101.308C242.587 101.808 240.867 101.198 239.187 101.138C235.167 100.998 232.287 104.668 231.347 108.598C231.347 108.638 230.707 111.858 230.387 113.098C230.067 114.338 229.467 115.608 228.327 116.208C227.597 116.588 226.747 116.638 225.927 116.758C223.457 117.118 221.137 118.138 218.857 119.158" fill="#FFFEEB"/>
<path d="M216.807 123.398C217.347 124.968 219.707 127.368 221.347 127.058C222.977 126.748 224.927 125.308 226.447 124.638C231.297 122.488 236.967 123.278 242.007 121.638C245.077 120.638 248.177 118.728 251.297 119.538C252.117 119.748 252.917 120.158 253.767 120.078C255.177 119.958 256.137 118.578 256.617 117.248C257.097 115.918 257.347 114.438 258.267 113.358C258.877 112.648 259.727 112.178 260.387 111.508C262.297 109.578 262.207 106.268 260.777 103.958C259.347 101.648 256.877 100.188 254.357 99.1481C252.497 98.3781 250.367 97.8081 248.507 98.5881C246.927 99.2481 245.817 100.798 244.187 101.308C242.587 101.808 240.867 101.198 239.187 101.138C235.167 100.998 232.287 104.668 231.347 108.598C231.347 108.638 230.707 111.858 230.387 113.098C230.067 114.338 229.467 115.608 228.327 116.208C227.597 116.588 226.747 116.638 225.927 116.758C223.457 117.118 221.137 118.138 218.857 119.158" stroke="black" stroke-width="2" stroke-linecap="round" stroke-linejoin="round"/>
<path d="M213.307 125.108C215.337 124.928 217.217 123.528 217.957 121.618C218.697 119.718 218.257 117.408 216.877 115.908C215.747 114.688 214.137 114.038 212.827 113.028C210.457 111.208 209.057 108.348 209.387 105.378" fill="#FFFEEB"/>
<path d="M213.307 125.108C215.337 124.928 217.217 123.528 217.957 121.618C218.697 119.718 218.257 117.408 216.877 115.908C215.747 114.688 214.137 114.038 212.827 113.028C210.457 111.208 209.057 108.348 209.387 105.378" stroke="black" stroke-width="2" stroke-linecap="round" stroke-linejoin="round"/>
<path d="M198.507 98.8481C197.237 100.158 195.197 100.238 193.367 100.158C191.547 100.068 189.557 99.9481 188.077 101.008C187.937 101.108 187.807 101.218 187.767 101.388" fill="#FFFEEB"/>
<path d="M198.507 98.8481C197.237 100.158 195.197 100.238 193.367 100.158C191.547 100.068 189.557 99.9481 188.077 101.008C187.937 101.108 187.807 101.218 187.767 101.388" stroke="black" stroke-width="2" stroke-linecap="round" stroke-linejoin="round"/>
<path d="M177.897 56.9381C172.967 59.7281 170.187 65.8581 171.307 71.4081C171.607 72.8881 172.157 74.3581 172.007 75.8581C171.727 78.5581 169.267 80.6181 168.837 83.2981C168.467 85.6181 169.807 88.0381 171.827 89.2281C173.847 90.4181 176.427 90.4981 178.647 89.7381C180.877 88.9781 182.777 87.4581 184.317 85.6781" fill="#FFFEEB"/>
<path d="M177.897 56.9381C172.967 59.7281 170.187 65.8581 171.307 71.4081C171.607 72.8881 172.157 74.3581 172.007 75.8581C171.727 78.5581 169.267 80.6181 168.837 83.2981C168.467 85.6181 169.807 88.0381 171.827 89.2281C173.847 90.4181 176.427 90.4981 178.647 89.7381C180.877 88.9781 182.777 87.4581 184.317 85.6781" stroke="black" stroke-width="2" stroke-linecap="round" stroke-linejoin="round"/>
<path d="M187.387 85.0281C189.517 83.9281 191.867 81.8681 193.227 79.8881L187.387 85.0281Z" fill="#FFFEEB"/>
<path d="M187.387 85.0281C189.517 83.9281 191.867 81.8681 193.227 79.8881" stroke="black" stroke-width="2" stroke-linecap="round" stroke-linejoin="round"/>
<path d="M253.777 120.088C254.857 120.478 254.977 121.778 254.797 122.918C254.617 124.058 254.087 125.128 254.067 126.278C254.047 127.548 254.667 128.738 254.927 129.988C255.507 132.798 254.237 135.678 252.537 137.988C251.517 139.378 250.287 140.678 248.707 141.368C247.117 142.058 245.327 142.078 243.597 142.078C239.747 142.078 235.677 142.038 232.397 140.008C231.817 139.648 231.257 139.228 230.617 138.968C229.977 138.708 229.217 138.648 228.627 138.988C228.027 139.338 227.727 140.018 227.337 140.588C226.207 142.218 224.027 143.038 222.107 142.558C220.187 142.078 218.647 140.328 218.417 138.358" fill="#FFFEEB"/>
<path d="M253.777 120.088C254.857 120.478 254.977 121.778 254.797 122.918C254.617 124.058 254.087 125.128 254.067 126.278C254.047 127.548 254.667 128.738 254.927 129.988C255.507 132.798 254.237 135.678 252.537 137.988C251.517 139.378 250.287 140.678 248.707 141.368C247.117 142.058 245.327 142.078 243.597 142.078C239.747 142.078 235.677 142.038 232.397 140.008C231.817 139.648 231.257 139.228 230.617 138.968C229.977 138.708 229.217 138.648 228.627 138.988C228.027 139.338 227.727 140.018 227.337 140.588C226.207 142.218 224.027 143.038 222.107 142.558C220.187 142.078 218.647 140.328 218.417 138.358" stroke="black" stroke-width="2" stroke-linecap="round" stroke-linejoin="round"/>
<path d="M236.207 122.728C234.117 122.728 232.297 123.948 231.047 125.618C229.797 127.288 228.947 129.238 227.657 130.878C225.417 133.748 220.537 133.338 218.827 137.118" fill="#FFFEEB"/>
<path d="M236.207 122.728C234.117 122.728 232.297 123.948 231.047 125.618C229.797 127.288 228.947 129.238 227.657 130.878C225.417 133.748 220.537 133.338 218.827 137.118" stroke="black" stroke-width="2" stroke-linecap="round" stroke-linejoin="round"/>
<path d="M237.337 53.6681C240.767 53.0281 243.047 51.3081 245.417 48.7481C247.787 46.1881 249.127 42.6181 248.677 39.1581C248.227 35.6981 245.857 32.4681 242.557 31.3281C238.997 30.0981 235.057 31.3281 231.697 33.0181C228.337 34.7181 225.137 36.8981 221.467 37.7381C218.347 38.4481 215.087 38.1181 211.927 37.6181C209.877 37.2881 207.717 36.8981 205.787 37.6481C203.857 38.3981 202.417 40.8181 203.477 42.5981" fill="#FFFEEB"/>
<path d="M237.337 53.6681C240.767 53.0281 243.047 51.3081 245.417 48.7481C247.787 46.1881 249.127 42.6181 248.677 39.1581C248.227 35.6981 245.857 32.4681 242.557 31.3281C238.997 30.0981 235.057 31.3281 231.697 33.0181C228.337 34.7181 225.137 36.8981 221.467 37.7381C218.347 38.4481 215.087 38.1181 211.927 37.6181C209.877 37.2881 207.717 36.8981 205.787 37.6481C203.857 38.3981 202.417 40.8181 203.477 42.5981" stroke="black" stroke-width="2" stroke-linecap="round" stroke-linejoin="round"/>
<path d="M240.567 101.278C238.997 99.9981 238.037 96.7481 238.697 94.8381C239.357 92.9181 241.287 91.5181 243.307 91.4781C244.237 91.4581 245.167 91.6981 246.097 91.6781C247.027 91.6581 248.057 91.2681 248.427 90.4081C248.987 89.1081 247.787 87.7881 247.367 86.4381C246.857 84.8081 247.667 82.8781 249.177 82.0881" fill="#FFFEEB"/>
<path d="M240.567 101.278C238.997 99.9981 238.037 96.7481 238.697 94.8381C239.357 92.9181 241.287 91.5181 243.307 91.4781C244.237 91.4581 245.167 91.6981 246.097 91.6781C247.027 91.6581 248.057 91.2681 248.427 90.4081C248.987 89.1081 247.787 87.7881 247.367 86.4381C246.857 84.8081 247.667 82.8781 249.177 82.0881" stroke="black" stroke-width="2" stroke-linecap="round" stroke-linejoin="round"/>
<path d="M256.257 80.3981C257.447 77.9881 260.427 76.1281 263.077 75.8881C265.727 75.6481 268.407 76.7681 270.337 78.6181C272.267 80.4681 273.457 82.9781 273.997 85.5881C274.587 88.4581 274.387 91.5781 272.957 94.1381C271.637 96.5081 269.357 98.2381 266.897 99.3781C264.437 100.518 261.767 101.138 259.117 101.748" fill="#FFFEEB"/>
<path d="M256.257 80.3981C257.447 77.9881 260.427 76.1281 263.077 75.8881C265.727 75.6481 268.407 76.7681 270.337 78.6181C272.267 80.4681 273.457 82.9781 273.997 85.5881C274.587 88.4581 274.387 91.5781 272.957 94.1381C271.637 96.5081 269.357 98.2381 266.897 99.3781C264.437 100.518 261.767 101.138 259.117 101.748" stroke="black" stroke-width="2" stroke-linecap="round" stroke-linejoin="round"/>
<path d="M197.707 62.2281C198.587 63.1581 200.157 65.3981 198.957 67.8081L197.707 62.2281Z" fill="#FFFEEB"/>
<path d="M197.707 62.2281C198.587 63.1581 200.157 65.3981 198.957 67.8081" stroke="black" stroke-width="2" stroke-linecap="round" stroke-linejoin="round"/>
<path d="M205.437 95.5581C207.697 97.3981 210.407 98.6781 213.277 99.1881L205.437 95.5581Z" fill="#FFFEEB"/>
<path d="M205.437 95.5581C207.697 97.3981 210.407 98.6781 213.277 99.1881" stroke="black" stroke-linecap="round" stroke-linejoin="round"/>
<path d="M200.507 89.0681C201.317 90.9581 202.487 92.6881 203.917 94.1681L200.507 89.0681Z" fill="#FFFEEB"/>
<path d="M200.507 89.0681C201.317 90.9581 202.487 92.6881 203.917 94.1681" stroke="black" stroke-linecap="round" stroke-linejoin="round"/>
<path d="M172.927 102.678C173.877 101.488 175.047 100.488 176.417 99.8081L172.927 102.678Z" fill="#FFFEEB"/>
<path d="M172.927 102.678C173.877 101.488 175.047 100.488 176.417 99.8081" stroke="black" stroke-linecap="round" stroke-linejoin="round"/>
<path d="M169.397 117.798C169.417 113.418 169.477 108.808 171.537 104.828L169.397 117.798Z" fill="#FFFEEB"/>
<path d="M169.397 117.798C169.417 113.418 169.477 108.808 171.537 104.828" stroke="black" stroke-linecap="round" stroke-linejoin="round"/>
<path d="M175.707 71.7381C176.747 76.0881 176.427 80.5281 174.047 84.4081L175.707 71.7381Z" fill="#FFFEEB"/>
<path d="M175.707 71.7381C176.747 76.0881 176.427 80.5281 174.047 84.4081" stroke="black" stroke-linecap="round" stroke-linejoin="round"/>
<path d="M178.117 61.9281C174.947 63.1281 174.727 67.1181 175.307 69.9281L178.117 61.9281Z" fill="#FFFEEB"/>
<path d="M178.117 61.9281C174.947 63.1281 174.727 67.1181 175.307 69.9281" stroke="black" stroke-linecap="round" stroke-linejoin="round"/>
<path d="M183.207 56.0081C187.547 55.6481 189.807 55.3081 193.787 57.6381L183.207 56.0081Z" fill="#FFFEEB"/>
<path d="M183.207 56.0081C187.547 55.6481 189.807 55.3081 193.787 57.6381" stroke="black" stroke-linecap="round" stroke-linejoin="round"/>
<path d="M178.407 46.9881C178.207 49.8981 178.187 53.3781 180.817 55.2781L178.407 46.9881Z" fill="#FFFEEB"/>
<path d="M178.407 46.9881C178.207 49.8981 178.187 53.3781 180.817 55.2781" stroke="black" stroke-linecap="round" stroke-linejoin="round"/>
<path d="M196.317 136.498C199.817 138.038 203.597 138.958 207.427 139.108L196.317 136.498Z" fill="#FFFEEB"/>
<path d="M196.317 136.498C199.817 138.038 203.597 138.958 207.427 139.108" stroke="black" stroke-linecap="round" stroke-linejoin="round"/>
<path d="M181.777 123.498C184.707 128.658 189.197 132.838 194.437 135.588L181.777 123.498Z" fill="#FFFEEB"/>
<path d="M181.777 123.498C184.707 128.658 189.197 132.838 194.437 135.588" stroke="black" stroke-linecap="round" stroke-linejoin="round"/>
<path d="M248.537 136.818C251.407 134.168 251.997 129.368 249.197 126.428L248.537 136.818Z" fill="#FFFEEB"/>
<path d="M248.537 136.818C251.407 134.168 251.997 129.368 249.197 126.428" stroke="black" stroke-linecap="round" stroke-linejoin="round"/>
<path d="M234.247 136.198C237.737 139.148 242.787 140.348 246.917 138.008L234.247 136.198Z" fill="#FFFEEB"/>
<path d="M234.247 136.198C237.737 139.148 242.787 140.348 246.917 138.008" stroke="black" stroke-linecap="round" stroke-linejoin="round"/>
<path d="M247.567 105.668C249.497 105.078 251.287 104.088 252.787 102.738L247.567 105.668Z" fill="#FFFEEB"/>
<path d="M247.567 105.668C249.497 105.078 251.287 104.088 252.787 102.738" stroke="black" stroke-linecap="round" stroke-linejoin="round"/>
<path d="M233.117 114.098C233.637 111.508 234.357 108.408 236.767 106.888C239.337 105.268 242.587 106.508 245.417 106.128" fill="#FFFEEB"/>
<path d="M233.117 114.098C233.637 111.508 234.357 108.408 236.767 106.888C239.337 105.268 242.587 106.508 245.417 106.128" stroke="black" stroke-linecap="round" stroke-linejoin="round"/>
<path d="M268.317 92.8381C270.587 89.5381 270.547 84.6381 267.107 82.0981L268.317 92.8381Z" fill="#FFFEEB"/>
<path d="M268.317 92.8381C270.587 89.5381 270.547 84.6381 267.107 82.0981" stroke="black" stroke-linecap="round" stroke-linejoin="round"/>
<path d="M259.037 97.9181C261.907 97.5581 264.767 96.4981 266.897 94.4981L259.037 97.9181Z" fill="#FFFEEB"/>
<path d="M259.037 97.9181C261.907 97.5581 264.767 96.4981 266.897 94.4981" stroke="black" stroke-linecap="round" stroke-linejoin="round"/>
<path d="M247.207 60.8081C247.877 64.1181 250.267 66.7181 251.117 69.9681L247.207 60.8081Z" fill="#FFFEEB"/>
<path d="M247.207 60.8081C247.877 64.1181 250.267 66.7181 251.117 69.9681" stroke="black" stroke-linecap="round" stroke-linejoin="round"/>
<path d="M252.037 49.8481C251.357 53.4281 247.207 55.2581 247.067 59.0781L252.037 49.8481Z" fill="#FFFEEB"/>
<path d="M252.037 49.8481C251.357 53.4281 247.207 55.2581 247.067 59.0781" stroke="black" stroke-linecap="round" stroke-linejoin="round"/>
<path d="M232.597 62.2581C236.257 64.8481 239.177 68.5581 240.617 72.8181L232.597 62.2581Z" fill="#FFFEEB"/>
<path d="M232.597 62.2581C236.257 64.8481 239.177 68.5581 240.617 72.8181" stroke="black" stroke-linecap="round" stroke-linejoin="round"/>
<path d="M222.447 58.3881C225.267 58.6681 228.007 59.5581 230.487 60.9281L222.447 58.3881Z" fill="#FFFEEB"/>
<path d="M222.447 58.3881C225.267 58.6681 228.007 59.5581 230.487 60.9281" stroke="black" stroke-linecap="round" stroke-linejoin="round"/>
<path d="M228.427 38.8181C231.307 37.6581 234.027 36.1181 236.477 34.2181L228.427 38.8181Z" fill="#FFFEEB"/>
<path d="M228.427 38.8181C231.307 37.6581 234.027 36.1181 236.477 34.2181" stroke="black" stroke-linecap="round" stroke-linejoin="round"/>
<path d="M211.887 41.0981C216.707 41.6481 221.637 41.1181 226.237 39.6181L211.887 41.0981Z" fill="#FFFEEB"/>
<path d="M211.887 41.0981C216.707 41.6481 221.637 41.1181 226.237 39.6181" stroke="black" stroke-linecap="round" stroke-linejoin="round"/>
<path d="M187.637 82.0981C187.807 82.6381 187.967 83.1781 188.137 83.7181L187.637 82.0981Z" fill="#FFFEEB"/>
<path d="M187.637 82.0981C187.807 82.6381 187.967 83.1781 188.137 83.7181" stroke="black" stroke-linecap="round" stroke-linejoin="round"/>
<path d="M188.777 79.7181C189.187 80.6381 189.607 81.5581 190.017 82.4681L188.777 79.7181Z" fill="#FFFEEB"/>
<path d="M188.777 79.7181C189.187 80.6381 189.607 81.5581 190.017 82.4681" stroke="black" stroke-linecap="round" stroke-linejoin="round"/>
<path d="M190.767 79.0981C190.827 79.7081 191.087 80.2881 191.487 80.7381L190.767 79.0981Z" fill="#FFFEEB"/>
<path d="M190.767 79.0981C190.827 79.7081 191.087 80.2881 191.487 80.7381" stroke="black" stroke-linecap="round" stroke-linejoin="round"/>
<path d="M191.517 76.0981C191.637 77.1181 191.977 78.0981 192.497 78.9781L191.517 76.0981Z" fill="#FFFEEB"/>
<path d="M191.517 76.0981C191.637 77.1181 191.977 78.0981 192.497 78.9781" stroke="black" stroke-linecap="round" stroke-linejoin="round"/>
<path d="M192.637 74.0981C192.847 74.5181 193.057 74.9281 193.257 75.3481L192.637 74.0981Z" fill="#FFFEEB"/>
<path d="M192.637 74.0981C192.847 74.5181 193.057 74.9281 193.257 75.3481" stroke="black" stroke-linecap="round" stroke-linejoin="round"/>
<path d="M182.387 113.728C182.717 114.398 183.057 115.058 183.387 115.728L182.387 113.728Z" fill="#FFFEEB"/>
<path d="M182.387 113.728C182.717 114.398 183.057 115.058 183.387 115.728" stroke="black" stroke-linecap="round" stroke-linejoin="round"/>
<path d="M183.397 111.718C183.977 112.848 184.557 113.968 185.147 115.098L183.397 111.718Z" fill="#FFFEEB"/>
<path d="M183.397 111.718C183.977 112.848 184.557 113.968 185.147 115.098" stroke="black" stroke-linecap="round" stroke-linejoin="round"/>
<path d="M184.267 109.478C185.037 110.658 185.797 111.848 186.567 113.028L184.267 109.478Z" fill="#FFFEEB"/>
<path d="M184.267 109.478C185.037 110.658 185.797 111.848 186.567 113.028" stroke="black" stroke-linecap="round" stroke-linejoin="round"/>
<path d="M185.877 107.988C186.297 108.568 186.707 109.158 187.127 109.738L185.877 107.988Z" fill="#FFFEEB"/>
<path d="M185.877 107.988C186.297 108.568 186.707 109.158 187.127 109.738" stroke="black" stroke-linecap="round" stroke-linejoin="round"/>
<path d="M185.177 105.318C186.047 106.278 186.917 107.238 187.787 108.208L185.177 105.318Z" fill="#FFFEEB"/>
<path d="M185.177 105.318C186.047 106.278 186.917 107.238 187.787 108.208" stroke="black" stroke-linecap="round" stroke-linejoin="round"/>
<path d="M186.017 103.348C186.477 103.888 186.937 104.428 187.387 104.968L186.017 103.348Z" fill="#FFFEEB"/>
<path d="M186.017 103.348C186.477 103.888 186.937 104.428 187.387 104.968" stroke="black" stroke-linecap="round" stroke-linejoin="round"/>
<path d="M185.887 99.9781C186.347 100.518 186.807 101.058 187.267 101.598L185.887 99.9781Z" fill="#FFFEEB"/>
<path d="M185.887 99.9781C186.347 100.518 186.807 101.058 187.267 101.598" stroke="black" stroke-linecap="round" stroke-linejoin="round"/>
<path d="M196.507 116.078C201.177 116.768 205.757 117.998 210.147 119.738L196.507 116.078Z" fill="#FFFEEB"/>
<path d="M196.507 116.078C201.177 116.768 205.757 117.998 210.147 119.738" stroke="black" stroke-linecap="round" stroke-linejoin="round"/>
<path d="M190.747 115.508C192.027 115.568 193.317 115.678 194.597 115.828L190.747 115.508Z" fill="#FFFEEB"/>
<path d="M190.747 115.508C192.027 115.568 193.317 115.678 194.597 115.828" stroke="black" stroke-linecap="round" stroke-linejoin="round"/>
<path d="M201.097 120.598C200.817 120.988 200.537 121.378 200.267 121.768L201.097 120.598Z" fill="#FFFEEB"/>
<path d="M201.097 120.598C200.817 120.988 200.537 121.378 200.267 121.768" stroke="black" stroke-linecap="round" stroke-linejoin="round"/>
<path d="M203.767 121.108C203.097 121.998 202.437 122.888 201.767 123.778L203.767 121.108Z" fill="#FFFEEB"/>
<path d="M203.767 121.108C203.097 121.998 202.437 122.888 201.767 123.778" stroke="black" stroke-linecap="round" stroke-linejoin="round"/>
<path d="M206.747 121.588C206.187 122.248 205.627 122.908 205.057 123.568L206.747 121.588Z" fill="#FFFEEB"/>
<path d="M206.747 121.588C206.187 122.248 205.627 122.908 205.057 123.568" stroke="black" stroke-linecap="round" stroke-linejoin="round"/>
<path d="M209.247 122.588C208.417 123.478 207.577 124.368 206.747 125.258L209.247 122.588Z" fill="#FFFEEB"/>
<path d="M209.247 122.588C208.417 123.478 207.577 124.368 206.747 125.258" stroke="black" stroke-linecap="round" stroke-linejoin="round"/>
<path d="M211.767 124.268C211.197 124.468 210.707 124.898 210.437 125.438L211.767 124.268Z" fill="#FFFEEB"/>
<path d="M211.767 124.268C211.197 124.468 210.707 124.898 210.437 125.438" stroke="black" stroke-linecap="round" stroke-linejoin="round"/>
<path d="M213.427 125.598C212.537 126.598 211.647 127.598 210.757 128.598L213.427 125.598Z" fill="#FFFEEB"/>
<path d="M213.427 125.598C212.537 126.598 211.647 127.598 210.757 128.598" stroke="black" stroke-linecap="round" stroke-linejoin="round"/>
<path d="M229.067 123.078C229.617 122.518 230.177 121.968 230.727 121.408L229.067 123.078Z" fill="#FFFEEB"/>
<path d="M229.067 123.078C229.617 122.518 230.177 121.968 230.727 121.408" stroke="black" stroke-linecap="round" stroke-linejoin="round"/>
<path d="M231.897 122.578C232.447 121.738 232.997 120.908 233.547 120.068L231.897 122.578Z" fill="#FFFEEB"/>
<path d="M231.897 122.578C232.447 121.738 232.997 120.908 233.547 120.068" stroke="black" stroke-linecap="round" stroke-linejoin="round"/>
<path d="M234.927 122.268C235.147 121.828 235.367 121.378 235.597 120.938L234.927 122.268Z" fill="#FFFEEB"/>
<path d="M234.927 122.268C235.147 121.828 235.367 121.378 235.597 120.938" stroke="black" stroke-linecap="round" stroke-linejoin="round"/>
<path d="M237.097 122.438C237.767 121.438 238.427 120.438 239.097 119.438L237.097 122.438Z" fill="#FFFEEB"/>
<path d="M237.097 122.438C237.767 121.438 238.427 120.438 239.097 119.438" stroke="black" stroke-linecap="round" stroke-linejoin="round"/>
<path d="M241.097 121.438C241.537 120.828 241.987 120.218 242.427 119.608L241.097 121.438Z" fill="#FFFEEB"/>
<path d="M241.097 121.438C241.537 120.828 241.987 120.218 242.427 119.608" stroke="black" stroke-linecap="round" stroke-linejoin="round"/>
<path d="M243.917 120.598C244.577 119.428 245.247 118.258 245.907 117.098L243.917 120.598Z" fill="#FFFEEB"/>
<path d="M243.917 120.598C244.577 119.428 245.247 118.258 245.907 117.098" stroke="black" stroke-linecap="round" stroke-linejoin="round"/>
<path d="M246.927 119.438C247.537 118.548 248.147 117.658 248.757 116.768L246.927 119.438Z" fill="#FFFEEB"/>
<path d="M246.927 119.438C247.537 118.548 248.147 117.658 248.757 116.768" stroke="black" stroke-linecap="round" stroke-linejoin="round"/>
<path d="M250.097 118.768C250.377 118.208 250.657 117.658 250.927 117.098L250.097 118.768Z" fill="#FFFEEB"/>
<path d="M250.097 118.768C250.377 118.208 250.657 117.658 250.927 117.098" stroke="black" stroke-linecap="round" stroke-linejoin="round"/>
<path d="M240.387 100.748C240.837 100.078 241.277 99.4181 241.727 98.7481L240.387 100.748Z" fill="#FFFEEB"/>
<path d="M240.387 100.748C240.837 100.078 241.277 99.4181 241.727 98.7481" stroke="black" stroke-linecap="round" stroke-linejoin="round"/>
<path d="M242.057 101.248C242.557 100.248 243.057 99.2481 243.547 98.2481L242.057 101.248Z" fill="#FFFEEB"/>
<path d="M242.057 101.248C242.557 100.248 243.057 99.2481 243.547 98.2481" stroke="black" stroke-linecap="round" stroke-linejoin="round"/>
<path d="M244.257 100.938C244.867 99.9981 245.477 99.0481 246.087 98.1081L244.257 100.938Z" fill="#FFFEEB"/>
<path d="M244.257 100.938C244.867 99.9981 245.477 99.0481 246.087 98.1081" stroke="black" stroke-linecap="round" stroke-linejoin="round"/>
<path d="M248.097 98.4381C248.537 97.6081 248.987 96.7681 249.427 95.9381L248.097 98.4381Z" fill="#FFFEEB"/>
<path d="M248.097 98.4381C248.537 97.6081 248.987 96.7681 249.427 95.9381" stroke="black" stroke-linecap="round" stroke-linejoin="round"/>
<path d="M250.927 97.9381C251.257 97.4381 251.597 96.9381 251.927 96.4381L250.927 97.9381Z" fill="#FFFEEB"/>
<path d="M250.927 97.9381C251.257 97.4381 251.597 96.9381 251.927 96.4381" stroke="black" stroke-linecap="round" stroke-linejoin="round"/>
<path d="M253.427 98.5981C253.707 98.1581 253.987 97.7081 254.257 97.2681L253.427 98.5981Z" fill="#FFFEEB"/>
<path d="M253.427 98.5981C253.707 98.1581 253.987 97.7081 254.257 97.2681" stroke="black" stroke-linecap="round" stroke-linejoin="round"/>
<path d="M256.747 71.9381C257.137 72.6081 257.517 73.2781 257.907 73.9381L256.747 71.9381Z" fill="#FFFEEB"/>
<path d="M256.747 71.9381C257.137 72.6081 257.517 73.2781 257.907 73.9381" stroke="black" stroke-linecap="round" stroke-linejoin="round"/>
<path d="M258.267 69.5981C258.827 70.5381 259.377 71.4881 259.937 72.4281L258.267 69.5981Z" fill="#FFFEEB"/>
<path d="M258.267 69.5981C258.827 70.5381 259.377 71.4881 259.937 72.4281" stroke="black" stroke-linecap="round" stroke-linejoin="round"/>
<path d="M259.827 67.4881C260.457 68.5881 261.077 69.6881 261.707 70.7981L259.827 67.4881Z" fill="#FFFEEB"/>
<path d="M259.827 67.4881C260.457 68.5881 261.077 69.6881 261.707 70.7981" stroke="black" stroke-linecap="round" stroke-linejoin="round"/>
<path d="M261.427 66.4381C261.817 67.0481 262.207 67.6581 262.597 68.2681L261.427 66.4381Z" fill="#FFFEEB"/>
<path d="M261.427 66.4381C261.817 67.0481 262.207 67.6581 262.597 68.2681" stroke="black" stroke-linecap="round" stroke-linejoin="round"/>
<path d="M262.097 63.9381C262.707 64.8781 263.317 65.8281 263.927 66.7681L262.097 63.9381Z" fill="#FFFEEB"/>
<path d="M262.097 63.9381C262.707 64.8781 263.317 65.8281 263.927 66.7681" stroke="black" stroke-linecap="round" stroke-linejoin="round"/>
<path d="M225.597 49.2681C225.927 48.7081 226.267 48.1581 226.597 47.5981L225.597 49.2681Z" fill="#FFFEEB"/>
<path d="M225.597 49.2681C225.927 48.7081 226.267 48.1581 226.597 47.5981" stroke="black" stroke-linecap="round" stroke-linejoin="round"/>
<path d="M227.427 49.7681C228.037 48.7681 228.647 47.7681 229.257 46.7681L227.427 49.7681Z" fill="#FFFEEB"/>
<path d="M227.427 49.7681C228.037 48.7681 228.647 47.7681 229.257 46.7681" stroke="black" stroke-linecap="round" stroke-linejoin="round"/>
<path d="M229.597 50.2681C229.987 49.5981 230.377 48.9381 230.767 48.2681L229.597 50.2681Z" fill="#FFFEEB"/>
<path d="M229.597 50.2681C229.987 49.5981 230.377 48.9381 230.767 48.2681" stroke="black" stroke-linecap="round" stroke-linejoin="round"/>
<path d="M231.627 50.9581C231.907 50.5181 232.187 50.0681 232.467 49.6281L231.627 50.9581Z" fill="#FFFEEB"/>
<path d="M231.627 50.9581C231.907 50.5181 232.187 50.0681 232.467 49.6281" stroke="black" stroke-linecap="round" stroke-linejoin="round"/>
<path d="M234.107 51.9481C234.717 50.8981 235.337 49.8381 235.947 48.7881L234.107 51.9481Z" fill="#FFFEEB"/>
<path d="M234.107 51.9481C234.717 50.8981 235.337 49.8381 235.947 48.7881" stroke="black" stroke-linecap="round" stroke-linejoin="round"/>
<path d="M236.597 52.7681C236.927 52.2081 237.267 51.6581 237.597 51.0981L236.597 52.7681Z" fill="#FFFEEB"/>
<path d="M236.597 52.7681C236.927 52.2081 237.267 51.6581 237.597 51.0981" stroke="black" stroke-linecap="round" stroke-linejoin="round"/>
<path d="M200.927 42.2681L200.097 44.0981L200.927 42.2681Z" fill="#FFFEEB"/>
<path d="M200.927 42.2681L200.097 44.0981" stroke="black" stroke-linecap="round" stroke-linejoin="round"/>
<path d="M202.887 42.9281C202.617 43.9281 202.337 44.9281 202.067 45.9281L202.887 42.9281Z" fill="#FFFEEB"/>
<path d="M202.887 42.9281C202.617 43.9281 202.337 44.9281 202.067 45.9281" stroke="black" stroke-linecap="round" stroke-linejoin="round"/>
<path d="M205.097 42.9381C204.817 43.4981 204.537 44.0481 204.267 44.6081L205.097 42.9381Z" fill="#FFFEEB"/>
<path d="M205.097 42.9381C204.817 43.4981 204.537 44.0481 204.267 44.6081" stroke="black" stroke-linecap="round" stroke-linejoin="round"/>
<path d="M207.927 43.7681C207.597 44.7081 207.257 45.6581 206.927 46.5981L207.927 43.7681Z" fill="#FFFEEB"/>
<path d="M207.927 43.7681C207.597 44.7081 207.257 45.6581 206.927 46.5981" stroke="black" stroke-linecap="round" stroke-linejoin="round"/>
<path d="M210.597 45.2681C210.427 45.7081 210.267 46.1581 210.097 46.5981L210.597 45.2681Z" fill="#FFFEEB"/>
<path d="M210.597 45.2681C210.427 45.7081 210.267 46.1581 210.097 46.5981" stroke="black" stroke-linecap="round" stroke-linejoin="round"/>
<path d="M213.427 45.5981C213.147 46.3181 212.867 47.0381 212.597 47.7681L213.427 45.5981Z" fill="#FFFEEB"/>
<path d="M213.427 45.5981C213.147 46.3181 212.867 47.0381 212.597 47.7681" stroke="black" stroke-linecap="round" stroke-linejoin="round"/>
</svg>
